<svg width="600" height="596" viewBox="0 0 600 596" fill="none" xmlns="http://www.w3.org/2000/svg">
<path d="M562.039 340.489C543.462 380.544 499.686 397.652 463.685 418.105C463.295 418.327 463.643 419.464 464.114 419.196C500.311 398.632 544.04 381.463 562.709 341.212C562.901 340.799 562.338 339.845 562.039 340.489Z" fill="#009F4F"/>
<path d="M552.367 364.758C554.732 361.937 557.383 359.357 560.267 357.068C561.082 356.422 562.08 355.763 563.084 356.033C564.146 356.318 564.695 357.604 564.482 358.684C564.27 359.762 563.492 360.642 562.652 361.351C559.429 364.068 555.098 364.974 550.961 365.789" fill="#009F4F"/>
<path d="M541.772 372.598C545.07 371.22 547.88 368.462 551.44 368.153C552.24 368.083 553.166 368.207 553.62 368.869C553.806 369.142 553.886 369.476 553.896 369.806C553.931 370.946 553.151 371.99 552.173 372.576C551.195 373.162 550.04 373.369 548.911 373.525C547.109 373.772 545.257 373.912 543.485 373.504C542.672 373.316 541.885 373.016 541.156 372.613" fill="#009F4F"/>
<path d="M531.66 377.371C530.659 373.028 529.652 368.561 530.306 364.152C530.438 363.26 530.647 362.357 531.13 361.596C531.613 360.834 532.415 360.228 533.315 360.179C533.654 360.161 534.01 360.226 534.286 360.425C534.853 360.833 534.924 361.639 534.914 362.339C534.847 367.268 533.441 372.07 532.046 376.799" fill="#009F4F"/>
<path d="M544.798 367.148C544.067 363.551 543.715 359.876 543.75 356.206C543.761 355.094 543.81 353.965 544.156 352.909C544.502 351.853 545.184 350.862 546.18 350.369C546.383 350.268 546.604 350.188 546.83 350.197C547.306 350.215 547.68 350.615 547.903 351.035C548.374 351.922 548.405 352.97 548.37 353.974C548.257 357.257 547.549 360.518 546.29 363.553C545.647 365.105 544.859 366.605 544.428 368.228" fill="#009F4F"/>
<path d="M527.772 386.36C530.765 384.739 533.846 383.28 536.998 381.994C539.383 381.019 541.938 380.129 544.487 380.509C545.212 380.617 545.974 380.863 546.407 381.455C546.878 382.099 546.83 383.024 546.444 383.723C546.058 384.421 545.387 384.923 544.68 385.294C542.464 386.454 539.851 386.491 537.349 386.503C534.485 386.515 531.619 386.528 528.755 386.542" fill="#009F4F"/>
<path d="M514.976 388.056C515.212 382.848 515.814 377.645 517.046 372.58C517.32 371.456 517.651 370.291 518.446 369.451C519.24 368.611 520.639 368.23 521.572 368.914C522.574 369.649 522.562 371.13 522.382 372.359C521.512 378.271 518.988 383.933 515.171 388.531" fill="#009F4F"/>
<path d="M511.727 397.045C516.062 398.626 521.264 400.619 525.868 400.286C528.694 400.082 531.877 399.234 533.143 396.7C533.414 396.156 533.58 395.537 533.479 394.937C533.29 393.816 532.238 393.047 531.185 392.623C528.025 391.352 524.414 392.148 521.252 393.413C518.09 394.678 515.071 396.404 511.727 397.045Z" fill="#009F4F"/>
<path d="M493.442 405.824C497.778 407.406 502.98 409.398 507.583 409.066C510.409 408.862 513.593 408.013 514.859 405.479C515.131 404.935 515.297 404.316 515.195 403.716C515.005 402.595 513.954 401.826 512.9 401.402C509.741 400.132 506.13 400.927 502.968 402.192C499.806 403.456 496.788 405.184 493.442 405.824Z" fill="#009F4F"/>
<path d="M498.43 399.175C499.529 395.389 499.823 391.42 500.665 387.569C501.506 383.718 503.006 379.825 505.97 377.226C506.44 376.814 506.981 376.424 507.604 376.379C508.54 376.31 509.38 377.081 509.672 377.972C509.965 378.864 509.825 379.837 509.602 380.748C508.061 387.053 502.991 391.789 499.733 397.402" fill="#009F4F"/>
<path d="M556.963 350.729C557.027 347.202 557.881 343.742 558.732 340.319C558.962 339.39 559.2 338.444 559.702 337.631C560.094 336.994 560.634 336.461 561.198 335.97C561.581 335.636 562.013 335.305 562.519 335.268C563.116 335.224 563.682 335.618 563.984 336.136C564.287 336.652 564.365 337.268 564.37 337.867C564.39 340.454 563.16 342.894 561.676 345.013C560.191 347.132 558.422 349.056 557.12 351.293" fill="#009F4F"/>
<path d="M41.1852 310.926C43.1508 355.398 77.1072 388.002 102.834 420.911C103.259 421.454 103.415 420.323 103.142 419.975C77.688 387.415 43.8648 355.103 41.9196 311.093C41.8932 310.482 41.1504 310.126 41.1852 310.926Z" fill="#009F4F"/>
<path d="M44.2344 339.455C43.1208 335.946 40.7448 331.349 38.9496 328.134C38.442 327.226 37.77 326.236 36.738 326.104C35.6472 325.963 34.6512 326.944 34.4364 328.022C34.2216 329.101 34.6056 330.21 35.1132 331.186C37.0596 334.926 40.7196 337.411 44.2344 339.74" fill="#009F4F"/>
<path d="M48.516 348.208C45.9912 345.678 44.4432 342.059 41.2692 340.416C40.5564 340.048 39.6516 339.808 38.9808 340.249C38.7048 340.43 38.5032 340.709 38.3688 341.01C37.9032 342.05 38.226 343.313 38.9076 344.227C39.5892 345.142 40.5768 345.773 41.5632 346.346C43.1352 347.262 44.7948 348.095 46.59 348.392C47.412 348.529 48.2544 348.551 49.0824 348.456" fill="#009F4F"/>
<path d="M56.0484 356.472C58.6272 352.837 61.2588 349.09 62.3328 344.764C62.55 343.889 62.7012 342.974 62.544 342.086C62.3868 341.198 61.8768 340.332 61.062 339.944C60.7548 339.798 60.402 339.724 60.0708 339.802C59.3904 339.964 59.0184 340.682 58.7604 341.333C56.9448 345.917 56.418 350.892 55.9068 355.795" fill="#009F4F"/>
<path d="M48.0948 342.017C50.1408 338.969 51.864 335.705 53.2296 332.297C53.6436 331.265 54.0276 330.203 54.1092 329.094C54.1908 327.985 53.9376 326.81 53.2044 325.975C53.0544 325.805 52.8816 325.646 52.6692 325.568C52.2228 325.404 51.7248 325.631 51.3588 325.934C50.586 326.575 50.1576 327.533 49.8084 328.474C48.6624 331.553 48.0756 334.838 48.084 338.123C48.0888 339.802 48.4656 339.826 48.246 341.49" fill="#009F4F"/>
<path d="M56.2212 366.264C54.0708 363.625 51.7776 361.103 49.3524 358.714C47.5176 356.904 45.4944 355.108 42.9924 354.49C42.2808 354.314 41.4828 354.252 40.8576 354.632C40.176 355.049 39.8688 355.922 39.96 356.716C40.0512 357.509 40.4796 358.228 40.9932 358.84C42.6012 360.757 45.0024 361.786 47.3112 362.749C49.956 363.852 52.5996 364.954 55.2444 366.056" fill="#009F4F"/>
<path d="M67.4076 372.704C69.1728 367.8 70.5972 362.759 71.3856 357.606C71.5608 356.464 71.6976 355.259 71.2836 354.18C70.8696 353.101 69.72 352.216 68.598 352.493C67.392 352.792 66.8388 354.164 66.5376 355.37C65.0904 361.169 65.2692 367.364 67.0488 373.07" fill="#009F4F"/>
<path d="M66.99 382.254C62.3796 382.066 56.8092 381.926 52.68 379.867C50.1444 378.602 47.5236 376.606 47.3184 373.781C47.274 373.174 47.3568 372.539 47.6784 372.023C48.2796 371.059 49.5456 370.747 50.6808 370.757C54.0864 370.786 57.1224 372.896 59.5644 375.269C62.0088 377.641 64.1412 380.388 66.99 382.254Z" fill="#009F4F"/>
<path d="M80.5548 397.333C75.9444 397.145 70.3752 397.006 66.2448 394.946C63.7092 393.682 61.0884 391.686 60.8832 388.86C60.8388 388.254 60.9216 387.618 61.2432 387.102C61.8444 386.138 63.1092 385.826 64.2456 385.836C67.6512 385.865 70.6872 387.976 73.1292 390.348C75.5724 392.72 77.706 395.467 80.5548 397.333Z" fill="#009F4F"/>
<path d="M78.4752 389.286C78.9 385.367 80.1396 381.584 80.8272 377.702C81.516 373.82 81.6108 369.65 79.86 366.119C79.5828 365.56 79.2312 364.992 78.6732 364.714C77.8344 364.295 76.7628 364.687 76.1532 365.399C75.5424 366.112 75.3024 367.066 75.162 367.992C74.1864 374.408 77.0712 380.719 77.9472 387.149" fill="#009F4F"/>
<path d="M42.7944 322.202C43.5108 320.371 44.1492 318.34 44.394 316.382C44.6352 314.461 45.2664 312.58 45.2688 310.609C45.2712 309.511 45.072 308.064 44.6196 307.061C44.3412 306.443 43.8216 305.894 43.1592 305.758C42.3612 305.593 41.5356 306.07 41.0748 306.74C40.6128 307.411 40.4496 308.24 40.356 309.049C39.828 313.634 41.2188 318.199 42.5928 322.606" fill="#009F4F"/>
<path d="M126.758 447.187C121.242 444.301 114.583 445.837 108.446 446.885C102.31 447.932 95.0652 448.044 90.9432 443.378C88.7472 440.892 87.8136 437.378 85.2516 435.27C80.9052 431.693 74.49 433.817 68.862 433.723C61.4292 433.598 54.2748 428.815 51.3192 421.993C49.8492 418.6 49.3236 414.752 47.166 411.748C44.6208 408.203 40.266 406.476 36.0564 405.325C33.2868 404.568 30.3912 403.945 28.0536 402.277C25.7172 400.609 24.0864 397.532 25.08 394.838C25.6788 393.216 27.1116 392.022 28.668 391.27C35.0136 388.2 42.5424 391.615 48.3072 395.67C54.0732 399.725 59.892 404.696 66.936 404.96C72.732 405.178 78.3684 402.083 84.1224 402.811C91.5216 403.747 96.7572 410.598 103.775 413.126C106.633 414.156 109.718 414.439 112.571 415.484C120.265 418.307 124.878 425.996 128.88 433.15" fill="#009F4F"/>
<path d="M126.808 428.111C114.827 428.878 98.6508 422.36 93.8472 410.306C92.0184 405.719 91.7904 400.181 88.1808 396.809C84.048 392.947 77.526 393.762 72.1464 392.017C66.0276 390.032 61.3248 384.251 60.6276 377.857C59.586 368.306 66.2256 360.386 68.4168 351.526C70.2252 344.212 69.066 335.837 66.2556 328.909C60.912 315.738 47.526 303.348 50.3136 287.992C50.5836 286.508 51.0336 285.013 51.9744 283.834C54.7152 280.397 60.3096 281.123 63.9504 283.585C77.382 292.67 75.9576 317.346 91.506 321.953C95.7432 323.208 100.458 322.52 104.508 324.288C113.699 328.3 113.678 341.075 117.901 350.171C122.353 359.76 132.349 365.924 136.644 375.584C142.512 388.783 136.214 404.578 140.341 418.421" fill="#2FB683"/>
<path d="M122.915 411.922C114.731 404.581 109.46 395.79 104.387 386.14C102.307 382.184 100.182 378.241 98.082 374.284C97.7148 361.896 96.6828 349.534 96.048 337.16C96.0384 336.98 95.7588 336.979 95.7672 337.16C96.318 349.009 96.5052 360.883 97.26 372.725C94.092 366.73 90.9984 360.694 88.2252 354.522C83.4048 343.793 80.328 332.398 75.714 321.586C71.2488 311.122 65.8224 300.551 58.9224 291.466C58.83 291.344 58.632 291.449 58.7124 291.589C63.2856 299.569 68.1696 307.277 72.1332 315.601C76.2576 324.265 79.2828 333.302 82.4892 342.328C86.5188 353.674 91.8108 364.584 97.4304 375.298C97.4436 375.492 97.4544 375.685 97.4688 375.88C97.4868 376.127 97.7088 376.214 97.8924 376.174C100.658 381.425 103.49 386.633 106.297 391.817C106.399 392.005 106.504 392.195 106.607 392.384C96.2364 387.119 86.6316 380.938 79.1856 371.742C79.0752 371.605 78.8856 371.798 78.9936 371.934C86.3556 381.187 95.862 389.568 107.228 393.52C111.124 400.573 115.769 407.928 122.422 412.564C122.8 412.825 123.259 412.229 122.915 411.922Z" fill="#303633"/>
<path d="M117.724 440.129C106.376 429.796 90.6756 426.797 76.866 421.163C68.5176 417.757 61.0308 412.933 53.7384 407.683C50.2764 405.191 46.8972 402.546 43.332 400.202C40.5192 398.354 37.2492 396.679 33.8892 398C33.7608 398.051 33.8088 398.234 33.9468 398.208C39.0216 397.226 43.0512 400.736 46.8804 403.536C50.2044 405.967 53.4948 408.444 56.8584 410.82C63.09 415.223 69.5676 419.094 76.6368 421.997C90.4728 427.676 105.432 430.828 117.055 440.8C117.512 441.191 118.178 440.543 117.724 440.129Z" fill="#93867F"/>
<path d="M90.4212 425.843C90.516 425.976 90.7404 425.9 90.6948 425.728C89.7624 422.15 87.342 418.936 84.978 416.158C82.812 413.612 79.7904 410.152 76.3644 409.463C76.2372 409.438 76.1388 409.622 76.2708 409.686C83.0196 412.924 86.3124 420.084 90.4212 425.843Z" fill="#93867F"/>
<path d="M109.925 435.988C107.429 435.001 104.236 436.499 101.524 436.366C98.4624 436.214 95.5992 435.432 92.5236 435.9C92.3724 435.923 92.4072 436.176 92.5596 436.168C95.61 435.998 98.5008 437.018 101.522 437.2C104.371 437.371 107.051 436.447 109.858 436.477C110.156 436.478 110.172 436.085 109.925 435.988Z" fill="#93867F"/>
<path d="M445.775 452.621C451.536 450.259 458.022 452.407 464.035 454.019C470.048 455.632 477.251 456.415 481.788 452.153C484.206 449.881 485.461 446.47 488.207 444.608C492.866 441.45 499.057 444.161 504.67 444.589C512.082 445.154 519.649 441.056 523.225 434.539C525.005 431.297 525.884 427.514 528.311 424.724C531.174 421.432 535.67 420.115 539.969 419.362C542.796 418.865 545.738 418.513 548.22 417.07C550.702 415.625 552.611 412.714 551.872 409.939C551.426 408.268 550.11 406.946 548.63 406.052C542.598 402.407 534.784 405.109 528.667 408.611C522.551 412.114 516.295 416.522 509.257 416.132C503.466 415.811 498.142 412.206 492.344 412.398C484.89 412.643 479.041 418.978 471.82 420.845C468.878 421.604 465.78 421.6 462.842 422.376C454.919 424.471 449.612 431.701 444.964 438.451" fill="#009F4F"/>
<path d="M447.496 433.621C459.354 435.497 476.065 430.508 481.967 418.952C484.213 414.554 484.955 409.062 488.861 406.039C493.334 402.577 499.752 403.994 505.271 402.756C511.547 401.348 516.766 396.028 518.054 389.725C519.978 380.312 514.102 371.81 512.743 362.784C511.621 355.334 513.553 347.102 516.995 340.466C523.538 327.848 538.016 316.754 536.665 301.206C536.534 299.704 536.225 298.174 535.398 296.912C532.988 293.236 527.351 293.44 523.496 295.553C509.279 303.352 508.408 328.054 492.499 331.198C488.164 332.054 483.533 330.931 479.336 332.316C469.812 335.458 468.648 348.179 463.598 356.844C458.275 365.978 447.75 371.188 442.578 380.408C435.51 393.006 440.316 409.316 434.921 422.717" fill="#2FB683"/>
<path d="M452.874 417.863C461.705 411.313 467.767 403.049 473.714 393.912C476.153 390.167 478.634 386.437 481.093 382.692C482.609 370.392 484.783 358.178 486.564 345.918C486.59 345.739 486.869 345.764 486.844 345.944C485.196 357.691 483.906 369.497 482.057 381.216C485.767 375.54 489.408 369.818 492.742 363.93C498.536 353.694 502.658 342.634 508.256 332.297C513.674 322.294 520.058 312.271 527.771 303.866C527.874 303.754 528.062 303.876 527.969 304.008C522.676 311.53 517.096 318.75 512.377 326.671C507.466 334.915 503.616 343.633 499.586 352.321C494.521 363.244 488.239 373.616 481.649 383.761C481.618 383.953 481.589 384.145 481.556 384.337C481.516 384.581 481.286 384.648 481.108 384.59C477.866 389.562 474.563 394.486 471.287 399.386C471.168 399.564 471.046 399.744 470.926 399.923C481.74 395.642 491.878 390.379 500.143 381.914C500.266 381.788 500.436 382 500.317 382.123C492.128 390.654 481.885 398.116 470.201 400.994C465.668 407.656 460.361 414.548 453.306 418.546C452.905 418.774 452.503 418.138 452.874 417.863Z" fill="#303633"/>
<path d="M455.424 446.43C467.682 437.195 483.593 435.666 497.866 431.339C506.494 428.723 514.397 424.615 522.144 420.064C525.822 417.902 529.433 415.583 533.201 413.581C536.173 412.002 539.585 410.638 542.808 412.265C542.93 412.327 542.867 412.506 542.731 412.466C537.769 411.018 533.431 414.139 529.358 416.572C525.823 418.684 522.317 420.845 518.747 422.898C512.134 426.703 505.325 429.956 498.017 432.191C483.714 436.562 468.527 438.312 456.028 447.161C455.537 447.508 454.933 446.801 455.424 446.43Z" fill="#93867F"/>
<path d="M483.935 434.74C483.828 434.863 483.612 434.767 483.672 434.599C484.933 431.124 487.642 428.148 490.253 425.6C492.646 423.266 495.976 420.102 499.451 419.735C499.579 419.722 499.661 419.915 499.524 419.965C492.504 422.564 488.561 429.388 483.935 434.74Z" fill="#93867F"/>
<path d="M463.574 443.032C466.152 442.282 469.192 444.068 471.904 444.187C474.966 444.322 477.889 443.807 480.907 444.558C481.056 444.595 480.997 444.844 480.846 444.821C477.824 444.37 474.852 445.116 471.826 445.016C468.973 444.923 466.391 443.754 463.594 443.524C463.297 443.498 463.319 443.105 463.574 443.032Z" fill="#93867F"/>
<path opacity="0.7237" d="M416.683 85.8408H390.649C389.587 85.8408 388.727 84.9804 388.727 83.9184C388.727 82.8564 389.587 81.996 390.649 81.996H416.683C417.745 81.996 418.606 82.8564 418.606 83.9184C418.607 84.9792 417.745 85.8408 416.683 85.8408Z" fill="#2FB683"/>
<path opacity="0.7237" d="M178.483 74.496H152.449C151.387 74.496 150.527 73.6356 150.527 72.5736C150.527 71.5116 151.387 70.6512 152.449 70.6512H178.483C179.545 70.6512 180.406 71.5116 180.406 72.5736C180.406 73.6356 179.545 74.496 178.483 74.496Z" fill="#2FB683"/>
<path opacity="0.7237" d="M365.917 185.546H339.883C338.821 185.546 337.961 184.686 337.961 183.624C337.961 182.562 338.821 181.702 339.883 181.702H365.917C366.979 181.702 367.84 182.562 367.84 183.624C367.84 184.686 366.979 185.546 365.917 185.546Z" fill="#2FB683"/>
<path opacity="0.7237" d="M527.48 169.475H501.446C500.384 169.475 499.524 168.614 499.524 167.552C499.524 166.49 500.384 165.63 501.446 165.63H527.48C528.542 165.63 529.403 166.49 529.403 167.552C529.403 168.614 528.542 169.475 527.48 169.475Z" fill="#2FB683"/>
<path opacity="0.7237" d="M393.204 98.112H367.17C366.108 98.112 365.248 97.2516 365.248 96.1896C365.248 95.1276 366.108 94.2672 367.17 94.2672H393.204C394.266 94.2672 395.126 95.1276 395.126 96.1896C395.126 97.2504 394.265 98.112 393.204 98.112Z" fill="#2FB683"/>
<path opacity="0.7237" d="M88.8612 158.513H62.8284C61.7664 158.513 60.906 157.652 60.906 156.59C60.906 155.528 61.7664 154.668 62.8284 154.668H88.8624C89.9244 154.668 90.7848 155.528 90.7848 156.59C90.7848 157.651 89.9232 158.513 88.8612 158.513Z" fill="#2FB683"/>
<path d="M170.664 167.291C170.664 169.645 168.755 171.554 166.4 171.554C164.046 171.554 162.137 169.645 162.137 167.291C162.137 164.936 164.046 163.027 166.4 163.027C168.756 163.027 170.664 164.936 170.664 167.291Z" fill="#23B27C"/>
<path d="M547.136 437.272C547.136 439.626 545.227 441.535 542.873 441.535C540.518 441.535 538.609 439.626 538.609 437.272C538.609 434.917 540.518 433.008 542.873 433.008C545.228 433.008 547.136 434.917 547.136 437.272Z" fill="#23B27C"/>
<path d="M49.5336 454.702C49.5336 457.056 47.6244 458.965 45.27 458.965C42.9156 458.965 41.0064 457.056 41.0064 454.702C41.0064 452.347 42.9156 450.438 45.27 450.438C47.6244 450.438 49.5336 452.347 49.5336 454.702Z" fill="#23B27C"/>
<path d="M81.096 241.04C81.096 243.395 79.1868 245.304 76.8324 245.304C74.478 245.304 72.5688 243.395 72.5688 241.04C72.5688 238.686 74.478 236.777 76.8324 236.777C79.188 236.777 81.096 238.686 81.096 241.04Z" fill="#23B27C"/>
<path d="M330.691 88.8576C330.691 91.212 328.782 93.1212 326.428 93.1212C324.073 93.1212 322.164 91.212 322.164 88.8576C322.164 86.5032 324.073 84.594 326.428 84.594C328.782 84.594 330.691 86.5032 330.691 88.8576Z" fill="#23B27C"/>
<path d="M398.143 167.095C398.143 169.45 396.234 171.359 393.88 171.359C391.525 171.359 389.616 169.45 389.616 167.095C389.616 164.741 391.525 162.832 393.88 162.832C396.234 162.833 398.143 164.741 398.143 167.095Z" fill="#23B27C"/>
<path d="M542.309 233.248C542.309 235.602 540.4 237.511 538.045 237.511C535.691 237.511 533.782 235.602 533.782 233.248C533.782 230.893 535.691 228.984 538.045 228.984C540.4 228.984 542.309 230.893 542.309 233.248Z" fill="#23B27C"/>
<path d="M343.405 118.918C341.47 120.258 338.814 119.776 337.474 117.84C336.133 115.904 336.616 113.249 338.551 111.908C340.487 110.568 343.142 111.05 344.484 112.986C345.823 114.922 345.341 117.577 343.405 118.918Z" fill="#23B27C"/>
<path d="M131.309 152.832C129.373 154.172 126.718 153.69 125.377 151.754C124.037 149.819 124.519 147.163 126.455 145.823C128.39 144.482 131.046 144.965 132.386 146.9C133.727 148.836 133.244 151.492 131.309 152.832Z" fill="#23B27C"/>
<path d="M300 501.186C441.42 501.186 556.064 491.855 556.064 480.344C556.064 468.834 441.42 459.503 300 459.503C158.58 459.503 43.9356 468.834 43.9356 480.344C43.9356 491.855 158.58 501.186 300 501.186Z" fill="#2FB683"/>
<path opacity="0.3752" d="M207.541 490.568C240.052 490.568 266.407 487.828 266.407 484.448C266.407 481.068 240.052 478.328 207.541 478.328C175.03 478.328 148.675 481.068 148.675 484.448C148.675 487.828 175.03 490.568 207.541 490.568Z" fill="#2FB683"/>
<path opacity="0.3752" d="M449.905 493.322C482.416 493.322 508.771 490.582 508.771 487.202C508.771 483.822 482.416 481.082 449.905 481.082C417.394 481.082 391.039 483.822 391.039 487.202C391.039 490.582 417.394 493.322 449.905 493.322Z" fill="#2FB683"/>
<path d="M110.917 225.084C110.917 225.084 201.772 207.624 292.625 225.084V480.343C292.625 480.343 177.674 465.626 110.917 474.101V225.084Z" fill="#23B27C"/>
<path d="M471.763 226.882C471.763 226.882 382.194 209.545 292.625 226.882V480.344C292.625 480.344 405.949 465.731 471.763 474.146V226.882Z" fill="#23B27C"/>
<path d="M110.917 221.572C110.917 221.572 201.772 204.112 292.625 221.572V476.831C292.625 476.831 177.674 462.113 110.917 470.588V221.572Z" fill="#303633"/>
<path d="M471.763 223.368C471.763 223.368 382.194 206.032 292.625 223.368V476.831C292.625 476.831 405.949 462.217 471.763 470.633V223.368Z" fill="#303633"/>
<path d="M116.602 217.124C116.602 217.124 204.613 199.788 292.625 217.124V470.587C292.625 470.587 181.271 455.974 116.602 464.389V217.124Z" fill="#E2E2E2"/>
<path d="M119.123 213.66C119.123 213.66 207.134 196.324 295.146 213.66V467.123C295.146 467.123 183.792 452.509 119.123 460.925V213.66Z" fill="#E5E5E5"/>
<path d="M121.644 210.342C121.644 210.342 207.134 193.006 292.625 210.342V463.805C292.625 463.805 184.46 449.191 121.644 457.607V210.342Z" fill="#EFF0F1"/>
<path d="M467.755 217.124C467.755 217.124 380.19 199.788 292.626 217.124V470.587C292.626 470.587 403.415 455.974 467.755 464.389V217.124Z" fill="#E2E2E2"/>
<path d="M463.542 210.036C463.542 210.036 378.052 192.7 292.561 210.036V463.5C292.561 463.5 400.726 448.886 463.542 457.302V210.036Z" fill="#EFF0F1"/>
<path d="M292.026 217.124C292.026 225.074 292.026 233.024 292.026 240.974C292.026 259.958 292.026 278.944 292.026 297.928C292.026 320.884 292.026 343.84 292.026 366.794C292.026 386.726 292.026 406.658 292.026 426.59C292.026 433.109 292.026 439.626 292.026 446.144C292.026 448.211 292.026 450.278 292.026 452.345C292.026 453.313 291.804 454.589 292.026 455.538C292.055 455.662 292.026 455.824 292.026 455.953C292.026 456.725 293.226 456.727 293.226 455.953C293.226 448.003 293.226 440.053 293.226 432.103C293.226 413.119 293.226 394.134 293.226 375.15C293.226 352.194 293.226 329.238 293.226 306.283C293.226 286.351 293.226 266.419 293.226 246.487C293.226 239.969 293.226 233.452 293.226 226.933C293.226 224.867 293.226 222.799 293.226 220.733C293.226 219.764 293.448 218.489 293.226 217.54C293.197 217.416 293.226 217.254 293.226 217.124C293.226 216.353 292.026 216.352 292.026 217.124Z" fill="#E2E2E2"/>
<g opacity="0.2841">
<path d="M176 252.539C176.069 265.601 175.602 278.642 175.388 291.7C175.386 291.87 175.64 291.866 175.651 291.7C176.489 278.68 176.416 265.578 176.216 252.539C176.213 252.4 175.999 252.4 176 252.539Z" fill="#CCAEAE"/>
<path d="M193.282 252.539C193.349 265.601 192.883 278.642 192.67 291.7C192.667 291.87 192.922 291.866 192.932 291.7C193.77 278.68 193.697 265.578 193.498 252.539C193.495 252.4 193.28 252.4 193.282 252.539Z" fill="#CCAEAE"/>
<path d="M212.419 252.539C212.488 265.601 212.021 278.642 211.807 291.7C211.805 291.87 212.059 291.866 212.07 291.7C212.906 278.68 212.834 265.578 212.635 252.539C212.633 252.4 212.419 252.4 212.419 252.539Z" fill="#CCAEAE"/>
<path d="M231.557 252.539C231.624 265.601 231.158 278.642 230.945 291.7C230.942 291.87 231.197 291.866 231.208 291.7C232.044 278.68 231.972 265.578 231.773 252.539C231.77 252.4 231.557 252.4 231.557 252.539Z" fill="#CCAEAE"/>
<path d="M250.696 252.539C250.764 265.601 250.297 278.642 250.084 291.7C250.081 291.87 250.336 291.866 250.346 291.7C251.183 278.68 251.111 265.578 250.912 252.539C250.908 252.4 250.694 252.4 250.696 252.539Z" fill="#CCAEAE"/>
<path d="M169.342 259.295L257.795 257.408" stroke="#CCAEAE" stroke-width="0.5" stroke-miterlimit="10"/>
<path d="M169.342 265.596L257.795 263.71" stroke="#CCAEAE" stroke-width="0.5" stroke-miterlimit="10"/>
<path d="M169.342 271.897L257.795 270.011" stroke="#CCAEAE" stroke-width="0.5" stroke-miterlimit="10"/>
<path d="M169.342 278.198L257.795 276.312" stroke="#CCAEAE" stroke-width="0.5" stroke-miterlimit="10"/>
<path d="M169.342 284.5L257.795 282.613" stroke="#CCAEAE" stroke-width="0.5" stroke-miterlimit="10"/>
<path d="M169.342 290.801L257.795 288.914" stroke="#CCAEAE" stroke-width="0.5" stroke-miterlimit="10"/>
</g>
<path opacity="0.1299" d="M480.953 262.154H314.986V343.429H480.953V262.154Z" fill="#23B27C"/>
<path opacity="0.1299" d="M268.376 309.222C268.376 309.222 222.445 306.754 207.136 306.754C191.825 306.754 145.895 309.222 145.895 309.222V241.04C145.895 241.04 181.612 236.969 207.136 236.969C222.445 236.969 268.376 241.04 268.376 241.04V309.222Z" fill="#23B27C"/>
<path opacity="0.1299" d="M270.552 425.561C270.552 425.561 248.098 423.323 240.612 423.323C233.128 423.323 210.673 425.561 210.673 425.561V363.733C210.673 363.733 228.134 360.041 240.612 360.041C248.096 360.041 270.552 363.733 270.552 363.733V425.561Z" fill="#23B27C"/>
<path d="M128.471 372.856C128.682 372.856 128.682 372.528 128.471 372.528C128.26 372.527 128.26 372.856 128.471 372.856Z" fill="#9B9B9B"/>
<path opacity="0.1299" d="M336.478 232.018H412.572C413.671 232.018 414.563 233.125 414.563 234.493C414.563 235.86 413.671 236.969 412.572 236.969H336.478C335.378 236.969 334.487 235.86 334.487 234.493C334.487 233.126 335.378 232.018 336.478 232.018Z" fill="#23B27C"/>
<path opacity="0.1299" d="M317.461 243.64H357.844C359.21 243.64 360.319 244.748 360.319 246.115C360.319 247.482 359.212 248.591 357.844 248.591H317.461C316.094 248.591 314.986 247.482 314.986 246.115C314.986 244.747 316.094 243.64 317.461 243.64Z" fill="#23B27C"/>
<path opacity="0.1299" d="M365.45 243.64H376.272C377.639 243.64 378.748 244.748 378.748 246.115C378.748 247.482 377.639 248.591 376.272 248.591H365.45C364.084 248.591 362.975 247.482 362.975 246.115C362.975 244.747 364.082 243.64 365.45 243.64Z" fill="#23B27C"/>
<g opacity="0.1299">
<path d="M241.223 390.848C241.682 390.838 242.053 390.133 242.071 389.216C242.172 384.017 241.768 376.667 241.409 371.988C241.36 371.347 241.286 370.642 241.025 370.244C240.736 369.805 240.346 370.07 239.988 370.048C232.028 369.564 226.33 370.519 219.47 369.872C218.816 369.811 218.045 369.875 217.698 370.958C217.516 371.53 217.501 372.256 217.494 372.943C217.438 377.732 217.423 384.322 217.375 389.512C217.366 390.533 217.79 391.379 218.302 391.367L241.223 390.848Z" fill="#23B27C"/>
</g>
<g opacity="0.1299">
<path d="M262.8 399.221C263.684 399.2 264.422 399.038 264.492 398.846C264.887 397.753 264.395 396.23 263.887 395.264C263.818 395.132 263.704 394.987 263.218 394.914C262.679 394.834 261.918 394.903 261.233 394.913C245.957 395.119 234.968 395.54 221.812 395.67C220.558 395.682 219.073 395.725 218.364 395.966C217.991 396.094 217.937 396.246 217.895 396.39C217.602 397.396 217.318 398.776 217.026 399.864C216.968 400.078 217.752 400.238 218.735 400.217L262.8 399.221Z" fill="#23B27C"/>
</g>
<g opacity="0.1299">
<path d="M262.8 408.072C263.684 408.052 264.422 407.891 264.492 407.698C264.887 406.604 264.395 405.082 263.887 404.116C263.818 403.984 263.704 403.838 263.218 403.765C262.679 403.685 261.918 403.754 261.233 403.764C245.957 403.972 234.968 404.392 221.812 404.521C220.558 404.533 219.073 404.576 218.364 404.818C217.991 404.945 217.937 405.097 217.895 405.241C217.602 406.247 217.318 407.627 217.026 408.715C216.968 408.929 217.752 409.09 218.735 409.068L262.8 408.072Z" fill="#23B27C"/>
</g>
<path opacity="0.1299" d="M383.432 243.64H412.087C413.454 243.64 414.563 244.748 414.563 246.115C414.563 247.482 413.454 248.591 412.087 248.591H383.432C382.066 248.591 380.957 247.482 380.957 246.115C380.957 244.747 382.066 243.64 383.432 243.64Z" fill="#23B27C"/>
<path opacity="0.1299" d="M318.628 354.655H394.722C395.821 354.655 396.713 355.764 396.713 357.131C396.713 358.498 395.821 359.606 394.722 359.606H318.628C317.528 359.606 316.637 358.499 316.637 357.131C316.637 355.764 317.528 354.655 318.628 354.655Z" fill="#23B27C"/>
<path opacity="0.1299" d="M318.361 378.952H415.39C416.341 378.952 417.113 384.784 417.113 391.979C417.113 399.174 416.341 405.006 415.39 405.006H318.361C317.41 405.006 316.638 399.174 316.638 391.979C316.638 384.784 317.41 378.952 318.361 378.952Z" fill="#23B27C"/>
<path opacity="0.1299" d="M318.628 412.147H421.122C422.221 412.147 423.113 413.255 423.113 414.623C423.113 415.99 422.221 417.098 421.122 417.098H318.628C317.528 417.098 316.637 415.991 316.637 414.623C316.637 413.255 317.528 412.147 318.628 412.147Z" fill="#23B27C"/>
<path opacity="0.1299" d="M318.628 427.336H415.122C416.221 427.336 417.113 428.443 417.113 429.811C417.113 431.178 416.221 432.287 415.122 432.287H318.628C317.528 432.287 316.637 431.179 316.637 429.811C316.637 428.443 317.528 427.336 318.628 427.336Z" fill="#23B27C"/>
<path opacity="0.1299" d="M400.6 354.655H430.063C430.489 354.655 430.834 355.763 430.834 357.131C430.834 358.498 430.488 359.606 430.063 359.606H400.6C400.174 359.606 399.829 358.499 399.829 357.131C399.829 355.764 400.174 354.655 400.6 354.655Z" fill="#23B27C"/>
<path opacity="0.1299" d="M317.461 366.276H357.844C359.21 366.276 360.319 367.385 360.319 368.752C360.319 370.118 359.212 371.227 357.844 371.227H317.461C316.094 371.227 314.986 370.118 314.986 368.752C314.986 367.385 316.094 366.276 317.461 366.276Z" fill="#23B27C"/>
<path opacity="0.1299" d="M365.45 366.276H376.272C377.639 366.276 378.748 367.385 378.748 368.752C378.748 370.118 377.639 371.227 376.272 371.227H365.45C364.084 371.227 362.975 370.118 362.975 368.752C362.975 367.385 364.082 366.276 365.45 366.276Z" fill="#23B27C"/>
<path opacity="0.1299" d="M383.432 366.276H412.087C413.454 366.276 414.563 367.385 414.563 368.752C414.563 370.118 413.454 371.227 412.087 371.227H383.432C382.066 371.227 380.957 370.118 380.957 368.752C380.957 367.385 382.066 366.276 383.432 366.276Z" fill="#23B27C"/>
<path opacity="0.1299" d="M171.026 333.67H151.506V353.19H171.026V333.67Z" fill="#23B27C"/>
<path opacity="0.1299" d="M216.895 314.25H197.375V333.77H216.895V314.25Z" fill="#23B27C"/>
<path opacity="0.1299" d="M248.257 333.221H228.737V352.741H248.257V333.221Z" fill="#23B27C"/>
<path d="M183.019 328.536H163.499V348.056H183.019V328.536Z" fill="#EE8963"/>
<path d="M223.332 318.775H203.812V338.296H223.332V318.775Z" fill="#FED193"/>
<path d="M255.997 325.618H236.477V345.138H255.997V325.618Z" fill="#FFA92B"/>
<path opacity="0.1299" d="M319.936 234.493C319.936 235.86 318.828 236.969 317.46 236.969C316.092 236.969 314.984 235.861 314.984 234.493C314.984 233.125 316.092 232.018 317.46 232.018C318.828 232.018 319.936 233.126 319.936 234.493Z" fill="#23B27C"/>
<path opacity="0.1299" d="M329.257 234.493C329.257 235.86 328.148 236.969 326.782 236.969C325.415 236.969 324.307 235.861 324.307 234.493C324.307 233.125 325.415 232.018 326.782 232.018C328.148 232.018 329.257 233.126 329.257 234.493Z" fill="#23B27C"/>
<path d="M160.141 252.539C159.703 266.725 160.556 281.112 161.122 295.29C161.141 295.77 161.88 295.775 161.872 295.29C161.609 281.098 161.62 266.682 160.356 252.539C160.344 252.402 160.145 252.398 160.141 252.539Z" fill="#DD7F7F"/>
<path d="M161.267 296.015C185.624 296.212 209.994 295.387 234.352 295.115C240.95 295.042 247.55 294.968 254.15 294.943C254.489 294.942 254.489 294.421 254.15 294.418C227.474 294.221 200.742 294.469 174.074 295.17C169.799 295.283 165.535 295.418 161.267 295.686C161.057 295.699 161.053 296.012 161.267 296.015Z" fill="#DD7F7F"/>
<path d="M164.369 287.896C167.227 283.224 170.27 278.68 173.471 274.236C176.444 270.108 181.476 260.806 187.706 264.822C195.239 269.677 197.722 281.105 206.62 284.256C214.987 287.219 219.948 276.134 222.553 270.259C226.685 260.945 231.386 249.384 243.107 248.358C243.408 248.332 243.42 247.88 243.107 247.88C233.753 247.884 227.888 256.535 224.37 264.145C222.089 269.081 220.262 274.392 217.03 278.82C215.137 281.411 212.353 284.04 208.907 283.891C205.742 283.754 203.146 281.357 201.082 279.202C197.568 275.536 194.918 271.154 191.51 267.398C189.108 264.75 185.968 261.872 182.176 263.564C178.462 265.222 175.874 269.914 173.615 273.06C170.21 277.799 167.104 282.739 164.198 287.797C164.135 287.906 164.303 288.004 164.369 287.896Z" fill="#DD7F7F"/>
<path d="M167.189 335.863C168.598 335.075 169.603 335.38 171.049 335.567C172.028 335.694 172.934 335.207 173.92 335.168C175.493 335.107 177.583 335.774 178.961 334.846C179.045 334.789 178.972 334.658 178.88 334.708C177.632 335.395 175.649 334.934 174.298 334.85C173.1 334.776 171.942 335.057 170.77 334.972C169.235 334.859 168.356 334.667 167.07 335.71C166.981 335.78 167.095 335.916 167.189 335.863Z" fill="#FFA92B"/>
<path d="M167.498 339.24C170.969 338.55 174.592 339.496 178.123 338.813C178.285 338.782 178.247 338.525 178.085 338.527C176.178 338.556 174.312 338.821 172.398 338.698C170.657 338.585 169.112 338.468 167.442 339.032C167.309 339.077 167.362 339.266 167.498 339.24Z" fill="#FFA92B"/>
<path d="M168.408 343.421C169.24 343.544 170.366 343.643 171.098 343.144C171.242 343.045 171.202 342.786 171.004 342.794C170.621 342.81 170.266 342.935 169.894 343.014C169.415 343.116 168.935 343.142 168.448 343.127C168.283 343.121 168.239 343.396 168.408 343.421Z" fill="#FFA92B"/>
<path d="M207.325 324.503C208.57 324.727 209.884 324.583 211.144 324.576C212.117 324.57 213.216 324.752 214.087 324.247C214.243 324.157 214.187 323.87 213.99 323.89C211.799 324.098 209.452 323.506 207.325 324.268C207.223 324.305 207.197 324.48 207.325 324.503Z" fill="#FFA92B"/>
<path d="M207.536 328.297C211.482 328.673 215.62 328.734 219.508 327.826C219.709 327.779 219.664 327.464 219.46 327.467C215.491 327.498 211.507 327.906 207.536 328.016C207.352 328.021 207.358 328.28 207.536 328.297Z" fill="#FFA92B"/>
<path d="M208.498 332.782C212.723 333.002 216.93 332.725 221.07 331.828C221.303 331.777 221.256 331.375 221.012 331.404C216.847 331.898 212.687 332.324 208.496 332.556C208.352 332.564 208.352 332.774 208.498 332.782Z" fill="#FFA92B"/>
<path d="M277.694 108.264C276.932 108.472 276.452 109.213 276.11 109.925C275.389 111.424 274.952 113.059 274.828 114.718C274.678 116.722 274.979 118.758 274.61 120.733C274.351 122.123 273.767 123.44 273.558 124.838C273.349 126.236 273.612 127.838 274.723 128.712C275.392 129.238 276.258 129.418 277.06 129.697C278.861 130.326 280.41 131.498 282.011 132.534C282.469 132.83 282.95 133.123 283.489 133.206C284.286 133.328 285.072 132.976 285.787 132.602C287.642 131.634 289.417 130.441 290.746 128.825C292.702 126.445 293.546 123.283 293.498 120.204C293.45 117.125 292.567 114.11 291.376 111.27C291.025 110.436 290.641 109.601 290.054 108.913C289.1 107.794 287.699 107.162 286.304 106.694C285.858 106.544 285.402 106.406 284.933 106.362C283.966 106.272 283.007 106.585 282.113 106.962C280.744 107.54 279.444 108.281 278.249 109.164C277.454 109.751 276.674 110.447 276.359 111.382" fill="#15243E"/>
<path d="M255.318 181.254C257.681 182.707 260.5 180.338 262.253 178.188C266.429 173.066 270.605 167.946 274.782 162.824C278.305 158.503 281.882 154.03 284.093 148.864C285.326 145.981 288.521 136.766 283.826 135.456C279.014 134.112 276.689 143.258 275.262 146.165C272.455 151.884 269.484 157.523 266.353 163.073C265.492 164.603 255.605 181.43 255.318 181.254Z" fill="#F9B589"/>
<path d="M283.932 130.313C283.862 131.12 283.778 131.818 283.751 132.221C282.692 144.827 278.053 156.863 272.705 168.341C271.897 167.588 271.075 166.823 270.268 166.07C269.321 165.193 268.387 164.315 267.44 163.438C267.175 163.187 266.897 162.908 266.827 162.546C266.772 162.282 266.842 162.002 266.911 161.752C269.656 151.568 272.428 141.344 276.62 131.677C277.303 130.103 279.978 123.64 282.179 123.876C284.155 124.086 284.113 127.792 283.932 130.313Z" fill="#FAE300"/>
<path opacity="0.1768" d="M283.932 130.313C283.862 131.12 283.778 131.818 283.751 132.221C282.692 144.827 278.053 156.863 272.705 168.341C271.897 167.588 271.075 166.823 270.268 166.07C272.858 156.458 275.548 146.833 279.517 137.71C280.087 136.4 282.037 131.706 283.932 130.313Z" fill="#E85F43"/>
<path d="M282.425 280.822C282.245 280.595 282.401 280.247 282.572 280.004C283.624 278.518 285.074 277.393 286.316 276.079C287.777 274.532 287.91 273.718 286.655 271.921C282.923 266.58 270.928 251.033 269.922 249.994C267.838 247.841 265.865 245.585 263.892 243.33C262.366 241.585 260.839 239.842 259.313 238.097C258.216 236.844 257.114 235.583 256.253 234.158C255.644 233.152 255.151 232.022 255.192 230.848C255.299 227.791 258.536 224.458 260.632 222.745C263.324 220.543 266.934 217.358 269.754 215.318C272.814 213.104 275.801 210.298 279.157 208.57C280.888 207.678 282.158 210.223 283.939 209.436C284.84 209.038 285.757 208.672 286.66 208.273C287.394 207.949 288.001 207.55 288.84 207.834C289.448 208.04 289.948 208.481 290.393 208.944C291.162 209.743 293.443 212.135 292.879 213.287C292.25 214.571 291.08 215.491 289.942 216.356C287.969 217.856 285.976 219.332 283.984 220.807C282.216 222.116 280.447 223.427 278.678 224.736C277.526 225.589 276.374 226.442 275.221 227.292C273.76 228.37 272.294 229.442 270.829 230.515C270.197 230.978 267.96 232.994 268.576 233.456C270.188 234.666 273.167 238.244 274.518 240.028C277.193 243.553 279.455 247.38 281.414 251.345C283.649 255.868 288.842 267.499 290.55 272.244C291.097 273.764 290.346 272.839 291.104 274.366C291.224 274.608 291.347 274.856 291.382 275.125C291.493 275.993 290.698 276.683 289.979 277.183C288.572 278.161 287.142 279.103 285.686 280.008C284.824 280.544 283.877 281.086 282.865 281.003C282.709 280.988 282.546 280.955 282.425 280.822Z" fill="#F9B589"/>
<path d="M282.442 279.019C281.466 280.28 280.459 281.611 280.214 283.192C280.105 283.9 280.219 284.657 280.697 285.192C281.258 285.821 281.915 285.691 282.518 285.52C283.72 285.178 284.873 284.662 285.929 283.994C287.425 283.049 288.712 281.812 289.987 280.583C290.834 279.767 291.682 278.951 292.529 278.134C293.036 277.645 294.236 276.941 294.149 276.118C294.121 275.861 293.965 275.639 293.813 275.431C292.87 274.146 291.858 272.912 290.784 271.735C290.555 271.486 290.129 271.502 289.955 271.794C289.526 272.509 288.732 273.011 287.894 273.037C287.677 273.044 287.453 273.023 287.248 273.098C286.889 273.23 286.381 274.013 286.117 274.298C285.666 274.787 285.244 275.3 284.833 275.824C284.014 276.871 283.256 277.966 282.442 279.019Z" fill="#15243E"/>
<path d="M246.841 263.065C246.761 262.787 247.037 262.525 247.288 262.364C248.825 261.388 250.592 260.897 252.24 260.152C254.178 259.274 254.61 258.571 254.13 256.433C252.702 250.075 247.501 231.14 246.965 229.796C245.852 227.015 244.883 224.178 243.912 221.345C243.161 219.152 242.411 216.959 241.661 214.766C241.122 213.192 240.581 211.607 240.323 209.962C240.142 208.8 240.114 207.568 240.598 206.495C241.856 203.707 246.115 201.852 248.704 201.061C252.031 200.045 256.578 198.467 259.961 197.65C263.633 196.762 267.46 195.298 271.222 194.971C273.161 194.803 273.372 197.64 275.317 197.587C276.302 197.56 277.289 197.569 278.275 197.543C279.077 197.521 279.792 197.382 280.459 197.964C280.944 198.386 281.238 198.983 281.474 199.58C281.882 200.611 283.086 203.689 282.127 204.541C281.058 205.49 279.626 205.898 278.245 206.267C275.85 206.906 273.448 207.516 271.044 208.126C268.91 208.667 266.778 209.208 264.644 209.749C263.255 210.102 261.865 210.454 260.476 210.803C258.714 211.246 256.952 211.682 255.19 212.119C254.429 212.308 251.594 213.324 251.989 213.985C253.022 215.717 254.42 220.157 254.995 222.319C256.133 226.596 256.775 230.995 257.083 235.405C257.435 240.438 257.362 245.49 257.142 250.526C257.071 252.142 257.195 258.682 257.317 260.38C257.336 260.65 257.356 260.926 257.286 261.187C257.059 262.033 256.062 262.368 255.208 262.559C253.536 262.931 251.854 263.26 250.165 263.544C249.164 263.713 248.082 263.855 247.177 263.394C247.042 263.328 246.904 263.236 246.841 263.065Z" fill="#F9B589"/>
<path d="M310.49 206.294C309.329 207.335 307.974 208.346 306.646 208.763C303.929 209.616 301.006 209.681 298.183 209.735C290.21 209.89 282.287 211.03 274.31 211.084C269.184 211.118 260.8 211.853 259.27 205.294C259.036 204.289 259.034 203.198 258.503 202.314C258.089 201.626 257.405 201.155 256.759 200.677C255.192 199.516 252.272 197.83 253.919 195.716C255.185 194.092 257.94 193.5 259.847 193.217C262.392 192.838 265.032 192.826 267.43 191.892C268.594 191.438 269.692 190.771 270.923 190.555C272.212 190.33 273.625 190.602 274.777 189.979C276.234 189.192 276.659 187.332 276.88 185.69C277.6 180.341 277.772 174.918 277.393 169.535C281.694 168.917 286.1 168.908 290.424 168.806C293.382 168.737 296.341 168.661 299.299 168.556C302.975 168.424 307.393 168.924 310.762 167.552C312.007 171.174 312.493 175.29 313.127 179.066C313.795 183.049 314.326 187.056 314.718 191.075C314.958 193.538 315.145 196.032 314.789 198.48C314.432 200.929 313.487 203.359 311.736 205.109C311.358 205.487 310.938 205.894 310.49 206.294Z" fill="#15243E"/>
<path d="M294.071 192.593C289.808 195.671 286.594 199.356 281.168 199.196C275.754 199.038 270.31 200.018 265.291 202.055C264.742 202.278 264.16 202.546 263.867 203.06C263.502 203.701 263.7 204.502 263.908 205.21C265.028 209.044 266.171 212.927 268.238 216.346C269.102 217.775 270.124 219.113 270.869 220.609C271.884 222.648 272.351 224.909 273.156 227.039C273.431 227.767 273.764 228.506 274.358 229.01C274.952 229.514 275.872 229.711 276.516 229.274C276.9 229.014 277.124 228.582 277.354 228.178C279.508 224.381 282.954 223.237 286.415 220.991C290.14 218.572 294.046 216.456 297.965 214.373C302.46 211.984 310.693 209.086 312.744 203.88" fill="#15243E"/>
<path d="M284.731 102.472C282.854 101.305 280.34 102.492 278.876 104.147C276.086 107.298 275.42 111.926 276.316 116.039C276.757 118.067 277.696 120.192 279.563 121.099C281.206 121.897 283.237 121.535 284.776 120.552C286.314 119.569 287.43 118.049 288.35 116.472C290.288 113.152 291.476 108.882 289.59 105.532C289.128 104.712 288.504 103.992 287.82 103.345C286.784 102.365 285.19 101.516 284.008 102.314L284.731 102.472Z" fill="#F9B589"/>
<path d="M287.67 113.224C287.738 113.251 287.812 113.273 287.888 113.285C288.03 113.309 288.176 113.302 288.319 113.324C289.026 113.438 289.423 114.256 289.384 114.971C289.344 115.686 289 116.344 288.773 117.022C287.999 119.329 288.667 122.056 290.42 123.744C290.923 124.229 291.504 124.632 291.953 125.167C292.81 126.188 293.088 127.561 293.665 128.764C294.442 130.381 295.639 131.104 296.933 132.209C298.261 133.343 298.928 135.108 300.242 136.279C302.746 138.511 306.688 138.317 309.709 136.86C310.434 136.511 311.148 136.092 311.942 135.97C313.16 135.781 314.36 136.309 315.504 136.766C317.003 137.365 318.551 137.866 320.15 138.086C321.284 138.242 322.475 138.25 323.534 137.815C324.594 137.381 325.495 136.429 325.612 135.29C325.727 134.159 325.042 133.049 324.091 132.424C323.141 131.798 321.968 131.597 320.832 131.591C320.202 131.587 319.56 131.639 318.952 131.476C317.19 131.004 316.393 129.037 315.404 127.506C313.758 124.955 310.951 123.187 307.939 122.803C306.856 122.665 305.742 122.695 304.692 122.394C303.536 122.062 302.528 121.345 301.634 120.541C299.568 118.68 298.006 116.27 297.126 113.633C296.207 110.88 295.104 108.4 293.525 105.912C292.18 103.792 290.521 101.716 288.2 100.756C286.486 100.046 284.532 100.02 282.737 100.489C281.798 100.734 281.048 100.966 280.249 101.548C278.554 102.784 277.309 104.414 276.455 106.348C275.968 107.448 275.826 108.502 274.854 109.322C274.536 109.591 274.178 109.808 273.869 110.086C273.203 110.683 272.791 111.625 273.016 112.49C273.24 113.357 274.222 114.012 275.065 113.713C275.854 113.434 276.229 112.524 276.93 112.066C277.87 111.452 279.1 111.787 280.219 111.858C281.765 111.956 283.342 111.482 284.575 110.546C284.946 110.266 287.288 107.831 287.195 109.391C287.15 110.128 286.85 110.832 286.819 111.57C286.789 112.229 287.086 112.985 287.67 113.224Z" fill="#15243E"/>
<path d="M288.496 123.834C288.496 123.834 286.933 119.754 286.801 117.238C286.702 115.336 284.058 118.6 282.931 120.134C282.686 122.875 282.684 126.396 282.439 129.137C282.414 129.419 282.34 129.923 282.344 130.206C282.346 130.326 282.371 130.478 282.487 130.51C282.569 130.531 282.648 130.478 282.716 130.429C284.52 129.106 286.453 127.957 288.479 127.006C289.056 126.734 289.664 126.462 290.065 125.965C290.465 125.468 289.958 124.429 288.496 123.834Z" fill="#F9B589"/>
<path d="M310.775 175.891C310.482 176.003 310.162 176.072 309.828 176.114C308.281 176.31 306.512 175.919 305.092 175.655C300.494 174.791 295.954 173.593 291.356 172.702C287.498 171.964 283.612 171.434 279.71 171.1C279.028 171.044 278.345 170.918 277.663 170.849C276.445 170.671 275.258 170.73 274.258 171.416C273.656 171.829 273.041 172.583 272.316 171.599C271.888 171.017 271.93 170.224 272.004 169.505C272.279 166.877 272.748 164.274 273.217 161.675C274.907 152.315 276.598 142.948 278.876 133.714C279.45 131.388 280.337 129.152 280.921 126.846C281.279 125.432 281.635 123.586 283.429 124.1C284.083 124.295 284.766 124.463 285.436 124.56C286.814 124.769 288.374 124.031 289.266 123.014C289.308 122.972 289.35 122.93 289.405 122.917C289.433 122.903 289.475 122.917 289.517 122.917C290.172 123.056 290.813 123.21 291.467 123.349C292.302 123.53 293.194 123.754 293.779 124.38C293.834 124.435 293.876 124.505 293.918 124.561C294.113 124.826 294.253 125.118 294.406 125.425C294.406 125.592 294.642 125.912 294.712 126.066C294.836 126.317 294.962 126.568 295.087 126.833C295.324 127.32 295.547 127.808 295.783 128.296C296.146 129.02 296.759 129.647 297.204 130.33C298.235 131.89 299.14 133.519 299.962 135.191C301.438 138.199 302.609 141.334 303.667 144.51C306.746 153.662 309.824 162.842 311.872 172.286C312.265 174.122 312.767 175.223 310.775 175.891Z" fill="#FAE300"/>
<g opacity="0.1768">
<path d="M310.775 175.891C310.482 176.003 310.162 176.072 309.828 176.114C308.281 176.31 306.512 175.919 305.092 175.655C300.494 174.791 295.954 173.593 291.356 172.702C289.658 172.376 287.952 172.092 286.241 171.846C285.782 171.78 282.782 171.718 282.744 171.601C282.65 171.306 282.846 171.005 283.03 170.754C283.669 169.88 284.269 168.977 284.826 168.049C286.685 164.954 288.078 161.582 288.96 158.082C289.4 156.332 289.714 154.549 289.892 152.754C290.056 151.115 289.931 149.495 290.44 147.955C292.928 140.43 294.138 132.488 293.917 124.56C294.112 124.825 294.252 125.117 294.404 125.424C294.404 125.591 294.641 125.911 294.71 126.065C294.835 126.316 294.961 126.566 295.086 126.832C295.322 127.319 295.546 127.807 295.782 128.294C296.144 129.019 296.758 129.646 297.203 130.328C298.234 131.888 299.138 133.518 299.96 135.19C301.436 138.198 302.608 141.332 303.666 144.509C306.745 153.661 309.823 162.841 311.87 172.285C312.265 174.122 312.767 175.223 310.775 175.891Z" fill="#E85F43"/>
</g>
<path d="M261.776 200.346C259.147 197.94 259.854 192.58 261.214 189.739C262.771 186.485 265.452 185.173 268.372 183.42C305.281 161.25 294.554 145.249 292.524 139.5C291.205 135.766 289.908 132.407 288.59 128.672C289.448 127.303 291.446 127.841 292.85 128.64C294.254 129.438 295.112 130.932 295.732 132.425C297.341 136.303 297.774 140.556 298.062 144.745C298.3 148.206 298.448 151.673 298.51 155.141C298.54 156.875 298.548 158.61 298.535 160.344C298.529 161.186 298.396 162.116 298.495 162.952C298.578 163.643 298.883 164.272 298.896 164.993C298.934 167.093 297.335 168.541 296 170.015C292.355 174.043 288.25 177.685 283.668 180.62C281.36 182.099 278.917 183.457 276.371 184.478C274.037 185.414 271.507 186.326 269.753 188.225C267.103 191.094 265.463 194.748 264.194 198.442C263.978 199.07 263.759 199.724 263.293 200.2C262.828 200.675 262.039 200.904 261.488 200.532C261.734 200.072 261.53 200.803 261.776 200.346Z" fill="#F9B589"/>
<path d="M287.849 131.788C287.926 131.788 287.926 131.668 287.849 131.668C287.772 131.668 287.772 131.788 287.849 131.788Z" fill="#E85F43"/>
<path d="M247.027 259.996C245.579 260.66 244.069 261.373 243.119 262.66C242.694 263.236 242.443 263.96 242.618 264.655C242.825 265.472 243.467 265.662 244.081 265.789C245.305 266.044 246.565 266.12 247.81 266.018C249.575 265.874 251.287 265.374 252.986 264.877C254.116 264.547 255.245 264.216 256.374 263.886C257.05 263.688 258.439 263.621 258.744 262.85C258.839 262.61 258.804 262.342 258.764 262.087C258.524 260.512 258.2 258.949 257.794 257.408C257.707 257.081 257.321 256.898 257.032 257.076C256.321 257.512 255.384 257.588 254.63 257.222C254.435 257.128 254.245 257.005 254.029 256.976C253.651 256.927 252.838 257.386 252.472 257.516C251.845 257.74 251.232 257.999 250.627 258.272C249.415 258.821 248.237 259.439 247.027 259.996Z" fill="#15243E"/>
<path d="M290.85 123.749C288.088 124.621 286.556 128.495 286.403 131.118C286.235 133.975 287.002 136.796 287.76 139.556C288.602 142.618 289.445 145.68 290.286 148.741C290.74 150.39 291.194 152.045 291.41 153.742C291.829 157.028 291.337 160.354 290.97 163.648C290.938 163.94 290.912 164.262 291.08 164.506C291.217 164.704 291.454 164.803 291.679 164.885C292.715 165.26 296.25 166.093 298.391 166.003C298.537 165.997 298.645 166.181 298.788 166.157C298.946 166.13 299.04 165.97 299.108 165.823C301.271 161.239 301.836 155.34 301.927 150.331C301.984 147.242 301.826 144.208 301.206 141.193C300.713 138.794 300.218 136.397 299.725 133.999C299.291 131.886 298.842 129.542 297.648 127.699C296.24 125.525 293.748 122.833 290.85 123.749Z" fill="#FAE300"/>
<path d="M293.183 200.003C288.558 203.262 277.01 211.913 274.321 211.649C274.196 211.634 273.931 211.579 273.527 211.482C269.098 210.354 248.815 204.169 241.933 201.745C240.568 201.258 239.732 200.923 239.648 200.812C239.383 200.422 239.342 199.92 239.3 199.446C238.715 190.586 238.436 181.699 238.506 172.825C238.506 170.15 239.704 170.026 240.22 170.15C248.327 172.016 269.946 177.004 273.095 177.853C273.582 177.978 274.084 178.159 274.391 178.549C274.433 178.604 274.46 178.661 274.488 178.716C274.669 179.036 274.739 179.426 274.781 179.803C274.85 180.472 274.948 182.255 275.032 184.664V184.706C275.101 187.019 274.717 190.356 274.774 193.392C280.666 195.148 286.538 196.435 293.002 198.761C293.531 198.959 293.642 199.682 293.183 200.003Z" fill="#44363B"/>
<path d="M274.68 196.262L274.385 208.89C274.636 208.71 275.795 207.946 276.046 207.766C277.223 206.923 278.4 206.08 279.577 205.236C280.987 204.224 282.397 203.213 283.804 202.198C284.338 201.812 284.881 201.437 285.406 201.038C285.754 200.774 285.905 200.352 285.484 200.082C285.163 199.877 284.771 199.832 284.417 199.714C283.841 199.52 283.265 199.328 282.689 199.138C281.056 198.595 279.422 198.056 277.788 197.519C276.956 197.245 275.512 196.535 274.68 196.262Z" fill="#535A63"/>
<path d="M252.918 103.559C243.638 97.9776 232.168 97.4736 221.657 98.4588C211.57 99.4044 200.792 101.192 193.924 109.457C191.407 112.484 189.035 115.858 188.756 119.832C188.437 124.388 189.529 129.049 191.912 132.952C194.137 136.596 197.466 139.54 201.314 141.377C205.247 143.254 209.59 144.959 213.826 146.027C222.84 148.3 232.579 148.356 241.603 146.107C250.213 143.96 260.065 139.051 264.208 130.739C269.629 119.861 262.259 109.177 252.918 103.559Z" fill="#23B27C"/>
<path d="M262.026 113.526C265.375 114.779 268.687 116.13 271.956 117.578C268.824 119.85 265.559 121.938 262.183 123.828" fill="#23B27C"/>
<path d="M208.326 114.678C215.099 116.161 222.529 115.327 229.404 115.138C233.396 115.027 237.389 114.898 241.379 114.725C243.27 114.642 245.417 114.784 247.271 114.322C248.048 114.128 247.717 112.968 246.942 113.129C244.962 113.539 242.639 113.258 240.632 113.263C236.668 113.273 232.703 113.25 228.738 113.244C222.169 113.234 214.691 112.427 208.326 114.379C208.188 114.422 208.171 114.643 208.326 114.678Z" fill="white"/>
<path d="M211.783 126.934C218.556 128.417 225.986 127.583 232.861 127.393C236.854 127.283 240.846 127.153 244.836 126.98C246.727 126.899 248.874 127.039 250.728 126.577C251.506 126.384 251.174 125.224 250.399 125.384C248.419 125.795 246.096 125.514 244.09 125.519C240.125 125.528 236.16 125.506 232.195 125.5C225.626 125.49 218.148 124.682 211.783 126.635C211.645 126.678 211.628 126.9 211.783 126.934Z" fill="white"/>
<path d="M197.642 121.045C205.464 122.357 213.739 121.549 221.628 121.303C226.208 121.16 230.788 121 235.364 120.767C237.397 120.664 239.983 120.889 241.942 120.21C242.686 119.952 242.381 118.78 241.613 119.017C239.54 119.657 236.754 119.288 234.622 119.318C230.069 119.383 225.516 119.39 220.963 119.416C213.432 119.458 204.961 118.621 197.644 120.748C197.506 120.786 197.484 121.019 197.642 121.045Z" fill="white"/>
<path d="M234.881 136.049C235.981 136.049 235.982 134.339 234.881 134.339C233.78 134.339 233.778 136.049 234.881 136.049Z" fill="white"/>
<path d="M239.446 136.08C240.677 136.08 240.678 134.167 239.446 134.167C238.214 134.167 238.212 136.08 239.446 136.08Z" fill="white"/>
<path d="M243.773 135.557C244.805 135.557 244.806 133.954 243.773 133.954C242.741 133.954 242.74 135.557 243.773 135.557Z" fill="white"/>
<path d="M200.113 99.624C194.086 102.043 187.843 107.73 186.754 114.455C186.706 114.752 187.127 114.998 187.285 114.679C188.818 111.584 189.966 108.67 192.28 106.014C194.49 103.477 197.236 101.419 200.221 99.882C200.36 99.8088 200.262 99.5628 200.113 99.624Z" fill="#23B27C"/>
<path d="M185.842 117.192C185.488 118.474 185.267 120.598 186.106 121.735C186.241 121.92 186.515 121.856 186.534 121.619C186.589 120.91 186.293 120.155 186.223 119.442C186.15 118.708 186.138 117.967 186.137 117.23C186.136 117.062 185.887 117.028 185.842 117.192Z" fill="#23B27C"/>
<path d="M292.307 101.146C297.185 103.504 298.118 110.796 300.869 115.02C301.744 116.364 302.782 117.626 304.082 118.58C305.984 119.977 308.371 120.38 310.403 121.55C310.714 121.729 311.074 121.295 310.795 121.043C309.206 119.605 307.088 119.417 305.286 118.319C302.669 116.724 301.12 113.98 299.863 111.281C298.285 107.888 296.717 101.705 292.411 100.897C292.271 100.871 292.158 101.075 292.307 101.146Z" fill="#15243E"/>
<path d="M307.079 140.137C308.38 140.578 309.31 140.028 310.547 139.579C312.65 138.818 314.557 139.261 316.655 139.772C316.873 139.825 316.958 139.508 316.747 139.438C315.334 138.962 313.776 138.596 312.274 138.746C310.468 138.926 308.936 140.258 307.093 140.026C307.027 140.018 307.021 140.118 307.079 140.137Z" fill="#15243E"/>
<path d="M321.912 129.334C323.413 129.365 324.953 129.822 326.024 130.919C327.156 132.077 327.293 133.537 327.38 135.065C327.395 135.316 327.732 135.361 327.814 135.124C328.994 131.672 325.152 128.329 321.888 129.151C321.782 129.175 321.808 129.331 321.912 129.334Z" fill="#15243E"/>
<path d="M472.345 238.759L486.636 221.026L431.611 176.682L417.317 194.419C417.166 194.556 417.025 194.702 416.898 194.861C414.908 197.329 416.123 202.002 419.71 207.577C422.734 212.296 427.453 217.663 433.355 222.886C434.574 223.962 435.845 225.037 437.162 226.099C452.38 238.362 467.976 244.256 471.998 239.266C472.129 239.106 472.243 238.937 472.345 238.759Z" fill="#33282D"/>
<path opacity="0.3404" d="M472 239.266C467.977 244.256 452.381 238.362 437.164 226.099C435.845 225.037 434.574 223.962 433.356 222.886C427.455 217.663 422.735 212.297 419.711 207.577C416.124 202.001 414.91 197.329 416.899 194.861C417.025 194.704 417.171 194.556 417.319 194.418L420.276 190.75C418.8 193.324 420.078 197.744 423.435 202.958C426.459 207.677 431.178 213.044 437.08 218.267C438.299 219.343 439.57 220.418 440.887 221.48C455.608 233.344 470.686 239.248 475.294 235.102L472.343 238.763C472.245 238.939 472.129 239.105 472 239.266Z" fill="#44363B"/>
<path d="M503.146 226.672C502.697 234.298 503.5 241.937 503.43 249.566C503.426 249.985 505.741 249.652 505.748 248.945C505.818 241.315 505.015 233.676 505.464 226.05C505.487 225.666 503.189 225.95 503.146 226.672Z" fill="#F7B228"/>
<path opacity="0.2358" d="M486.636 221.026L481.355 227.579L449.246 220.21C448.42 220.022 447.71 219.488 447.299 218.747L427.036 182.359L431.612 176.681L486.636 221.026Z" fill="#44363B"/>
<path d="M422.88 161.858L477.502 177.619C477.785 177.701 478.026 177.889 478.174 178.144L506.228 226.356C506.732 227.222 505.96 228.272 504.982 228.049L451.841 215.856C451.013 215.666 450.304 215.134 449.891 214.392L421.56 163.518C421.063 162.623 421.897 161.575 422.88 161.858Z" fill="#44363B"/>
<path d="M505.462 249.566C508.115 252.859 510.883 256.427 511.23 260.641C511.512 264.073 510.133 267.394 508.931 270.62C506.672 276.68 504.942 282.99 504.538 289.444C500.71 283.598 498.991 276.632 498.508 269.663C497.744 258.666 503.31 250.144 505.21 249.158" fill="#F7B228"/>
<g opacity="0.4222">
<path d="M505.211 249.158L505.463 249.565C508.112 252.857 510.882 256.428 511.23 260.639C511.511 264.074 510.131 267.392 508.93 270.619C506.67 276.68 504.942 282.988 504.538 289.445C504.43 289.285 504.329 289.123 504.227 288.961C503.998 283.007 504.853 277.032 506.179 271.214C506.948 267.857 507.88 264.388 507.145 261.023C506.389 257.556 505.279 254.438 503.314 251.147C504.066 250.08 504.749 249.397 505.211 249.158Z" fill="#F7B228"/>
</g>
<path d="M502.202 247.072C501.168 248.13 501.031 249.859 501.985 251.025C502.741 251.949 504.095 252.33 505.222 251.938C506.348 251.545 507.173 250.405 507.191 249.213C507.217 247.537 505.627 246.007 503.95 246.123C503.273 246.168 502.643 246.563 502.202 247.072Z" fill="#F99F00"/>
<g opacity="0.5884">
<path d="M502.082 249.224C502.044 249.774 502.327 250.339 502.751 250.496C503.087 250.62 503.458 250.448 503.636 250.085C503.816 249.721 503.792 249.191 503.58 248.818C503.282 248.293 502.65 248.16 502.298 248.556C502.157 248.714 502.088 248.972 502.082 249.224Z" fill="#F7B228"/>
</g>
<g opacity="0.5844">
<path d="M507.193 249.211C507.172 250.403 506.347 251.546 505.222 251.935C504.821 252.073 504.389 252.116 503.971 252.072C504.955 251.605 505.651 250.553 505.664 249.457C505.691 247.993 504.467 246.632 503.033 246.4C503.32 246.244 503.627 246.144 503.953 246.121C505.628 246.005 507.216 247.538 507.193 249.211Z" fill="#F7B228"/>
</g>
<g opacity="0.7063">
<path d="M502.766 255.9C500.03 260.11 499.613 266.083 499.847 270.965C500.096 276.184 501.28 281.458 503.539 286.177C503.65 286.409 504.054 286.244 503.959 286.001C502.067 281.14 500.706 276.204 500.461 270.965C500.213 265.636 501.5 261.026 502.946 255.976C502.979 255.865 502.826 255.808 502.766 255.9Z" fill="#D68900"/>
<path d="M503.296 258.778C500.741 267.282 500.376 277.759 503.471 286.135C503.592 286.464 504.118 286.33 504.004 285.988C501.156 277.397 501.763 267.613 503.503 258.834C503.531 258.7 503.336 258.643 503.296 258.778Z" fill="#D68900"/>
<path d="M504.691 258.08C503.792 263.43 503.626 268.952 503.279 274.362C503.033 278.198 502.578 282.398 503.492 286.177C503.59 286.578 504.161 286.4 504.098 286.01C502.631 276.812 505.124 267.343 504.922 258.113C504.918 257.984 504.714 257.945 504.691 258.08Z" fill="#D68900"/>
<path d="M506.615 254.274C512.424 264.137 504.116 275.951 503.477 286.093C503.454 286.446 504.046 286.535 504.103 286.178C505.192 279.418 508.031 273.068 509.014 266.32C509.572 262.494 509.863 257.084 506.85 254.093C506.73 253.973 506.527 254.125 506.615 254.274Z" fill="#D68900"/>
<path d="M506.496 262.154C505.9 268.076 503.98 273.923 503.76 279.87C503.753 280.064 504.056 280.108 504.101 279.916C505.428 274.14 506.527 268.08 506.702 262.153C506.706 262.02 506.509 262.026 506.496 262.154Z" fill="#D68900"/>
</g>
<path d="M472.064 168.701C472.724 165.152 474.293 162.193 475.622 158.89C475.721 158.646 475.36 158.542 475.229 158.723C473.201 161.518 472.36 165.283 471.785 168.623C471.754 168.806 472.031 168.886 472.064 168.701Z" fill="#15243E"/>
<path d="M479.928 169.579C481.637 167.624 483.287 165.632 485.101 163.771C486.917 161.911 488.938 160.273 490.76 158.425C490.95 158.233 490.703 157.886 490.465 158.042C486.23 160.819 482.398 165.132 479.618 169.34C479.497 169.525 479.78 169.747 479.928 169.579Z" fill="#15243E"/>
<path d="M486.721 175.172C489.768 173.549 492.794 172.261 496.002 170.989C496.307 170.868 496.196 170.426 495.865 170.492C492.566 171.144 489.18 172.776 486.499 174.792C486.277 174.959 486.464 175.309 486.721 175.172Z" fill="#15243E"/>
<path d="M213.401 430.181C214.812 428.604 216.804 426.886 218.78 427.643C219.932 428.084 220.62 429.242 221.22 430.32C230.137 446.339 239.752 462.61 254.334 473.719C251.568 473.352 250.307 478.028 247.517 477.977C246.754 477.962 246.054 477.572 245.396 477.184C234.568 470.79 225.06 462.173 217.637 452.022C213.371 460.975 207.588 469.205 200.61 476.252C198.566 478.316 193.181 484.483 175.859 484.448C165.034 484.427 184.814 464.922 188.548 459.707C195.76 449.63 205.141 439.409 213.401 430.181Z" fill="#15243E"/>
<path d="M256.084 374.683C244.43 375.539 235.679 385.675 236.534 397.328C237.39 408.982 247.528 417.733 259.181 416.878C270.82 416.023 279.57 405.886 278.716 394.232C277.859 382.58 267.722 373.83 256.084 374.683ZM258.892 412.95C249.403 413.646 241.159 406.53 240.463 397.042C239.767 387.553 246.883 379.309 256.372 378.613C265.846 377.918 274.104 385.033 274.8 394.522C275.497 404.01 268.366 412.254 258.892 412.95Z" fill="#15243E"/>
<path d="M251.83 415.724C251.83 415.724 246.598 431.086 244.964 436.951" stroke="#15243E" stroke-width="3" stroke-miterlimit="10" stroke-linecap="round" stroke-linejoin="round"/>
<path d="M181.216 362.783C183.04 361.062 186.101 361.816 188.102 363.324C191.915 366.198 193.698 371.194 193.631 375.967C193.597 378.322 193.033 380.896 191.161 382.325C189.515 383.582 187.175 383.638 185.243 382.892C183.311 382.146 181.727 380.708 180.348 379.163C177.444 375.908 175.162 371.43 176.503 367.28C176.831 366.265 177.364 365.324 177.977 364.451C178.907 363.127 180.488 361.824 181.982 362.446L181.216 362.783Z" fill="#F9B589"/>
<path d="M180.006 386.848C180.006 386.848 181.441 382.104 181.384 379.246C181.34 377.086 184.6 380.562 185.999 382.207C186.499 385.289 186.79 389.272 187.29 392.353C187.342 392.67 187.466 393.234 187.484 393.554C187.493 393.691 187.476 393.865 187.348 393.91C187.258 393.941 187.163 393.888 187.082 393.838C184.933 392.488 182.653 391.346 180.283 390.434C179.608 390.174 178.898 389.916 178.404 389.387C177.911 388.858 178.399 387.641 180.006 386.848Z" fill="#F9B589"/>
<path d="M197.244 433.68V433.692C197.196 434.712 197.148 435.72 197.136 436.728V437.04C197.1 441.624 197.004 446.232 196.848 450.828C196.764 453.816 196.656 456.816 196.512 459.804C196.392 462.72 196.248 465.66 196.056 468.588C196.02 469.368 195.972 470.136 195.924 470.916C195.9 471.432 195.852 471.996 195.504 472.38C195.216 472.68 194.772 472.812 194.364 472.932C194.16 472.992 193.932 473.052 193.728 473.124C192.744 473.4 191.76 473.676 190.776 473.94C185.64 475.368 180.432 476.604 175.128 476.988C169.284 477.396 163.224 476.676 158.004 474.084C156.648 469.272 156.288 463.428 156.168 460.272C156.156 460.26 156.156 460.248 156.168 460.236V458.028C156.204 443.004 156.492 427.884 160.02 413.304C160.32 412.116 160.62 410.916 160.968 409.74C162.36 404.868 164.232 400.116 166.944 395.844C170.292 390.552 172.776 387.744 178.536 385.356L178.62 385.332C179.232 385.092 179.868 384.96 180.528 384.924C182.688 384.804 184.98 385.692 186.624 387.108C187.332 387.708 187.932 388.416 188.34 389.172C193.476 398.7 194.304 409.116 195.78 419.628C195.828 419.964 195.876 420.312 195.924 420.648C196.296 423.228 196.68 425.796 197.028 428.376C197.076 428.712 197.112 429.048 197.16 429.384C197.34 430.788 197.304 432.228 197.244 433.68Z" fill="#2863DF"/>
<path d="M248.039 433.664C248.832 432.787 249.446 431.694 249.451 430.517C249.456 429.266 248.59 427.967 247.35 427.804C246.26 427.661 245.262 428.365 244.39 429.034C243.985 429.343 243.581 429.653 243.178 429.964C241.638 431.143 241.019 431.507 239.149 431.537C237.193 431.568 235.238 431.732 233.281 431.766C229.862 431.826 226.439 431.752 223.03 431.477C217.879 431.062 212.702 430.211 207.829 428.448C201.854 426.287 196.423 422.582 193.327 416.912C191.497 413.562 190.927 409.972 189.918 406.355C188.711 402.028 187.728 398.063 186.521 393.736C184.832 393.023 183.326 394.823 182.542 396.48C181.758 398.136 181.934 400.082 182.33 401.872C183.361 406.522 185.729 410.754 188.19 414.833C190.223 418.201 192.342 421.518 194.544 424.78C195.646 426.41 196.766 428.027 197.909 429.629C198.463 430.408 199.193 431.185 199.644 432.025C200.017 432.721 200.143 433.504 200.602 434.182C201.934 436.157 204.362 436.46 206.562 436.961C212.573 438.328 218.756 439.037 224.923 438.78C227.179 438.685 229.435 438.49 231.664 438.119C233.552 437.804 235.314 437.234 237.227 437.281C241.006 437.372 245.161 436.68 247.89 433.828C247.938 433.774 247.988 433.72 248.039 433.664Z" fill="#F9B589"/>
<path d="M188.093 371.794C187.398 372.041 186.641 372.182 186.064 372.636C184.696 373.711 185.453 375.547 185.446 377.008C185.444 377.333 185.371 377.723 185.07 377.846C184.686 378.005 184.316 377.608 184.091 377.26C183.652 376.586 183.212 375.912 182.774 375.238C182.444 374.731 181.978 374.158 181.38 374.246C180.689 374.348 180.454 375.263 180.617 375.943C180.841 376.872 181.732 377.394 181.688 378.373C181.655 379.116 181.594 379.859 181.504 380.597C181.475 380.828 180.322 380.059 180.098 379.949C179.292 379.549 178.513 379.099 177.773 378.587C177.374 378.311 176.977 378.008 176.725 377.594C176.135 376.62 176.512 375.371 176.903 374.299C175.302 373.992 173.852 372.812 173.4 371.248C172.948 369.682 173.632 367.811 175.074 367.054C174.017 365.477 174.018 363.334 174.814 361.61C175.385 360.372 176.394 359.279 177.7 358.885C179.005 358.492 180.596 358.944 181.286 360.12C180.973 359.581 181.127 358.867 181.505 358.372C181.883 357.876 182.444 357.559 183.002 357.283C183.612 356.982 184.247 356.712 184.918 356.604C186.592 356.335 188.341 357.157 189.374 358.502C190.165 359.532 190.556 360.824 190.6 362.113C190.607 362.342 190.481 362.864 190.57 363.06C190.682 363.31 190.846 363.203 191.137 363.228C191.718 363.278 192.284 363.528 192.703 363.934C193.079 364.297 193.34 364.789 193.379 365.31C193.429 366.011 193.087 366.673 192.754 367.292C192.636 367.511 192.516 367.733 192.35 367.918C192.084 368.214 191.718 368.398 191.387 368.621C190.976 368.897 190.613 369.244 190.315 369.64C189.906 370.187 189.613 370.836 189.086 371.269C188.791 371.512 188.45 371.666 188.093 371.794Z" fill="#15243E"/>
<path opacity="0.7278" d="M197.244 433.692C197.196 434.712 197.148 435.72 197.136 436.728V437.04C197.1 441.624 197.004 446.232 196.848 450.828C196.764 453.816 196.656 456.816 196.512 459.804C196.441 461.278 196.975 470.065 194.82 469.229C194.226 468.998 193.825 468.448 193.471 467.918C188.755 460.88 186.064 452.639 184.652 444.284C183.857 439.576 183.456 434.809 183.248 430.04C183.102 426.665 181.949 421.006 183.628 417.989C185.532 422.407 188.676 426.157 192.238 429.342C193.002 430.025 197.244 432.547 197.244 433.692Z" fill="#2863DF"/>
<path d="M161.564 482.311C169.506 488.057 182.236 484.364 190.078 480.522C194.208 478.498 198.367 476.456 202.044 473.693C203.749 472.411 212.279 465.034 210.626 462.361C210.157 461.602 206.158 462.079 205.255 461.998C202.241 461.725 199.235 461.39 196.217 461.158C187.83 460.519 178.853 460.145 171.481 459.893C163.184 459.614 164.224 459.744 163.184 459.614C163.174 459.618 155.873 459.388 155.873 459.388C155.832 459.378 155.807 459.376 155.78 459.373C155.808 459.572 155.814 460.387 155.872 461.59C155.866 461.605 155.869 461.616 155.873 461.627C155.994 464.784 156.352 470.633 157.705 475.441C158.549 478.418 159.775 481.013 161.564 482.311Z" fill="#15243E"/>
<path d="M181.381 395.786C181.458 395.786 181.458 395.666 181.381 395.666C181.304 395.666 181.304 395.786 181.381 395.786Z" fill="#E85F43"/>
<path d="M181.213 390.638C184.346 389.65 188.292 392.25 190.144 394.588C192.161 397.133 193.285 400.252 194.378 403.309C195.59 406.702 196.801 410.093 198.013 413.485C198.666 415.312 199.321 417.145 200.225 418.861C201.978 422.186 204.599 424.955 207.085 427.775C207.306 428.026 207.539 428.309 207.541 428.644C207.542 428.916 207.389 429.163 207.233 429.386C206.515 430.41 203.773 433.486 201.727 434.795C201.588 434.884 201.607 435.126 201.457 435.197C201.293 435.275 201.101 435.186 200.942 435.096C195.949 432.246 191.581 427.135 188.234 422.543C186.17 419.711 184.34 416.79 182.953 413.586C181.849 411.037 180.746 408.488 179.642 405.94C178.67 403.693 177.56 401.226 177.469 398.736C177.364 395.798 177.926 391.675 181.213 390.638Z" fill="#2863DF"/>
<path d="M189.643 355.483C192.174 357.071 193.403 360.043 193.434 362.941C193.438 363.296 193.945 363.284 193.978 362.941C194.285 359.652 192.479 356.958 189.751 355.297C189.632 355.224 189.526 355.409 189.643 355.483Z" fill="#385272"/>
<path d="M154.501 395.311C147.601 401.003 138.668 402.078 130.392 401.714C122.449 401.365 113.915 400.267 108.028 392.927C105.87 390.238 103.804 387.218 103.337 383.528C102.8 379.298 103.36 374.897 104.977 371.132C106.487 367.619 108.902 364.698 111.793 362.783C114.748 360.826 118.034 359.006 121.278 357.787C128.179 355.193 135.787 354.626 142.98 356.246C149.844 357.792 157.852 361.849 161.612 369.378C166.535 379.235 161.448 389.581 154.501 395.311Z" fill="#FFCACA"/>
<path d="M160.992 385.304C163.531 383.96 166.034 382.526 168.498 381.004C165.907 379.051 163.224 377.278 160.468 375.694" fill="#FFCACA"/>
<path d="M121.369 383.502C125.746 384.037 130.348 383.422 134.729 383.176C137.2 383.036 139.67 382.892 142.144 382.777C143.518 382.714 145.183 382.411 146.545 382.698C146.803 382.752 146.915 382.361 146.654 382.301C145.559 382.046 144.256 382.228 143.147 382.25C140.452 382.307 137.756 382.415 135.064 382.526C130.504 382.714 125.878 382.75 121.355 383.401C121.294 383.41 121.318 383.496 121.369 383.502Z" fill="#FF6F6C"/>
<path d="M122.845 372.222C127.222 372.757 131.824 372.142 136.205 371.896C138.676 371.756 141.148 371.612 143.62 371.497C144.994 371.434 146.659 371.131 148.021 371.418C148.279 371.472 148.391 371.081 148.13 371.02C147.035 370.765 145.732 370.946 144.623 370.969C141.928 371.026 139.234 371.135 136.54 371.245C131.98 371.432 127.354 371.468 122.831 372.12C122.768 372.13 122.794 372.216 122.845 372.222Z" fill="#FF6F6C"/>
<path d="M114.101 378.076C119.098 378.71 124.36 378.046 129.368 377.806C132.199 377.671 135.03 377.53 137.862 377.438C139.289 377.392 141.392 377.009 142.787 377.483C143.04 377.569 143.144 377.174 142.896 377.084C141.721 376.662 140.071 376.914 138.848 376.925C135.907 376.95 132.966 377.047 130.027 377.148C124.717 377.329 119.387 377.438 114.1 377.972C114.034 377.98 114.035 378.067 114.101 378.076Z" fill="#FF6F6C"/>
<path d="M132.107 388.37C132.97 388.37 132.971 387.03 132.107 387.03C131.244 387.03 131.243 388.37 132.107 388.37Z" fill="#FF6F6C"/>
<path d="M136.361 388.414C137.592 388.414 137.593 386.501 136.361 386.501C135.131 386.501 135.128 388.414 136.361 388.414Z" fill="#FF6F6C"/>
<path d="M140.418 388.33C141.45 388.33 141.451 386.726 140.418 386.726C139.386 386.726 139.385 388.33 140.418 388.33Z" fill="#FF6F6C"/>
<path d="M256.088 469.87C257.683 469.016 259.362 468.142 261.176 468.166C261.989 468.176 262.816 468.448 263.322 469.082C263.92 469.829 263.65 470.539 263.344 471.182C262.734 472.462 261.94 473.653 260.993 474.709C259.652 476.204 258.025 477.409 256.41 478.604C255.337 479.398 254.264 480.192 253.19 480.985C252.548 481.46 251.533 482.669 250.63 482.417C250.348 482.338 250.129 482.122 249.925 481.912C249.175 481.139 248.45 480.342 247.751 479.522C247.184 478.858 246.262 478.277 245.864 477.514C246.785 476.821 247.849 476.348 248.842 475.764C249.834 475.178 250.79 474.44 251.304 473.41C251.738 472.538 251.92 471.998 252.778 471.546C253.873 470.971 254.998 470.453 256.088 469.87Z" fill="#24416B"/>
<path d="M340.291 478.181L286.205 476.515C286.378 470.915 286.549 465.314 286.722 459.713C286.82 456.522 286.919 453.332 287.017 450.143C287.058 448.811 287.099 447.48 287.14 446.148C287.197 444.294 286.456 441.08 289.138 440.935C290.272 440.874 291.448 441 292.583 441.035C295.703 441.131 298.823 441.227 301.943 441.323C309.739 441.563 317.534 441.803 325.331 442.043C328 442.126 330.668 442.207 333.337 442.29C335.904 442.369 340.036 441.36 340.895 444.702C341.251 446.089 341.228 447.778 341.184 449.203C341.124 451.148 341.064 453.092 341.004 455.036C340.872 459.312 340.741 463.588 340.609 467.862C340.502 471.301 340.397 474.742 340.291 478.181Z" fill="#15243E"/>
<path d="M338.854 476.032L287.694 474.456C287.845 469.534 287.998 464.61 288.149 459.688C288.235 456.883 288.322 454.079 288.408 451.276C288.444 450.106 288.48 448.934 288.516 447.764C288.566 446.135 287.858 443.309 290.395 443.185C291.468 443.134 292.58 443.248 293.653 443.28C296.604 443.371 299.555 443.462 302.507 443.552C309.881 443.779 317.255 444.007 324.629 444.234C327.154 444.312 329.677 444.39 332.202 444.467C334.63 444.541 338.536 443.663 339.354 446.603C339.694 447.823 339.676 449.308 339.637 450.56C339.584 452.269 339.532 453.979 339.479 455.688C339.364 459.446 339.247 463.204 339.132 466.962C339.04 469.986 338.947 473.009 338.854 476.032Z" fill="#385272"/>
<path d="M340.291 478.181L286.205 476.515C284.501 477.679 282.797 478.843 281.093 480.007C279.701 480.958 278.309 481.908 276.917 482.858C276.238 483.322 273.979 485.246 275.315 485.426C277.012 485.656 278.291 485.728 278.927 485.747C282.31 485.851 285.692 485.956 289.076 486.06C297.194 486.31 305.312 486.56 313.432 486.81C316.236 486.896 319.04 486.983 321.846 487.069C324.203 487.142 326.156 487.585 328.279 486.317C329.887 485.357 331.417 484.242 332.968 483.184C335.407 481.516 337.849 479.849 340.291 478.181Z" fill="#FEFEFE"/>
<path d="M335.292 479.128L286.97 477.625C286.103 478.217 285.236 478.81 284.369 479.402C283.661 479.886 282.953 480.37 282.245 480.853C281.899 481.09 280.75 482.068 281.43 482.16C282.294 482.276 282.944 482.314 283.268 482.323C284.99 482.376 286.711 482.429 288.432 482.483C292.562 482.61 317.495 483.392 321.625 483.52C323.052 483.564 324.479 483.607 325.907 483.652C327.106 483.689 328.1 483.914 329.18 483.269C329.999 482.78 330.778 482.214 331.566 481.675C332.807 480.826 334.049 479.976 335.292 479.128Z" fill="#2B3E59"/>
<path d="M465.977 441.972C466.218 443.803 467.292 445.573 468.33 447.17C470.308 450.211 472.285 453.251 474.263 456.292C475.136 457.634 475.925 459.29 477.076 460.41C478.028 461.336 478.963 462.197 479.848 463.222C481.903 465.606 483.95 467.998 485.978 470.406C486.85 471.44 487.717 472.477 488.576 473.52C488.92 473.938 490.471 475.328 490.471 475.859C492.012 477.81 491.916 478.741 490.364 480.59C489.046 482.162 487.478 483.532 486.386 485.285C486.208 485.572 486.055 485.975 486.274 486.22C486.42 486.364 486.607 486.39 486.781 486.394C487.933 486.421 488.97 485.744 489.911 485.08C491.498 483.959 493.056 482.797 494.584 481.595C495.364 480.98 496.219 480.148 496.036 479.172C495.979 478.87 495.823 478.597 495.671 478.331C494.711 476.654 491.372 470.027 490.651 468.342C488.402 463.084 485.996 457.882 483.164 452.909C481.494 449.975 479.674 447.122 477.665 444.407C475.944 442.079 473.983 439.584 470.948 438.974C469.962 438.776 466.313 438.895 466.042 440.124C465.908 440.744 465.896 441.362 465.977 441.972Z" fill="#F9B589"/>
<path d="M437.964 370.19C439.562 384.906 441.161 399.623 442.758 414.338C442.988 416.459 443.23 418.624 444.122 420.562C444.906 422.264 446.152 423.704 447.372 425.126C454.208 433.082 460.818 441.233 467.19 449.566C470.376 453.732 473.503 457.944 476.569 462.198C478.103 464.326 479.62 466.464 481.123 468.613C482.165 470.102 483.598 472.121 484.997 473.286C485.936 474.068 487.31 474.143 488.479 473.784C489.648 473.425 490.66 472.693 491.648 471.974C492.118 471.634 492.625 471.23 492.709 470.657C492.756 470.339 492.661 470.02 492.568 469.714C488.05 454.98 481.302 441.001 472.759 428.183C470.929 425.436 467.794 422.472 466.481 419.51C465.043 416.269 466.03 410.761 466.088 407.234C466.238 398.309 466.792 389.39 467.747 380.514C468.335 375.047 469.052 369.364 467.242 364.172C465.515 359.224 461.545 357.593 456.734 356.875C452.398 356.228 447.409 356.177 444.296 359.264C441.256 362.28 441.085 367.28 438.272 370.511" fill="#15243E"/>
<path d="M443.339 424.396C443.438 424.337 443.538 424.268 443.638 424.206C443.723 423.18 444.049 421.883 444.216 421.4C444.888 419.453 445.56 417.506 446.226 415.556C446.752 414.018 447.274 412.478 447.796 410.939C448.597 408.575 449.399 406.211 450.2 403.847C451.104 401.184 452.006 398.521 452.875 395.846C453.377 394.303 453.872 392.689 453.629 391.086C453.41 389.647 449.738 388.892 448.505 388.645C447.79 388.501 447.041 388.414 446.34 388.614C445.374 388.89 445.066 389.656 444.59 390.433C444.007 391.387 443.389 392.321 442.807 393.276C441.658 395.16 438.827 393.61 437.79 395.56C435.779 399.342 434.81 403.888 433.388 407.93C432.079 411.654 430.774 416.956 429.688 420.75C428.869 423.606 428.058 428.55 429.707 431.512C430.67 430.942 431.699 430.45 432.676 430.001C436.326 428.324 439.886 426.452 443.339 424.396Z" fill="#F9B589"/>
<path d="M428.69 428.494C428.878 430.373 429.392 432.202 429.904 434.02C430.616 436.55 431.329 439.081 432.042 441.612C432.962 444.883 433.884 448.156 434.969 451.376C435.492 452.932 440.196 474.704 441.414 481.994C441.823 484.447 441.289 485.216 439.039 486.088C437.126 486.828 435.092 487.272 433.291 488.282C432.997 488.448 432.668 488.728 432.742 489.048C432.8 489.245 432.952 489.359 433.102 489.445C434.098 490.025 435.332 489.931 436.476 489.803C438.407 489.587 440.333 489.32 442.249 489.004C443.228 488.842 444.38 488.524 444.689 487.58C444.785 487.289 444.78 486.974 444.775 486.667C444.743 484.735 445.013 477.32 445.194 475.495C445.759 469.804 446.16 464.087 446.077 458.364C446.004 453.348 445.554 448.326 444.534 443.41C444.12 441.413 443.614 439.426 443.021 437.474C442.232 434.882 441.598 433.734 442.144 430.991C443.316 425.111 444.481 419.23 445.651 413.35C441.552 412.226 437.161 414.619 434.562 417.983C433.314 419.598 432.379 421.446 431.047 422.999C430.44 423.707 429.514 424.13 429.078 424.873C428.492 425.876 428.581 427.391 428.69 428.494Z" fill="#F9B589"/>
<path d="M433.975 484.859C432.361 485.675 430.681 486.546 429.659 488.046C429.202 488.717 428.948 489.55 429.178 490.33C429.445 491.248 430.182 491.435 430.884 491.554C432.282 491.789 433.714 491.824 435.121 491.654C437.116 491.416 439.036 490.775 440.941 490.139C442.207 489.716 443.473 489.293 444.739 488.87C445.496 488.617 447.07 488.48 447.382 487.596C447.479 487.32 447.427 487.016 447.373 486.73C447.034 484.954 446.599 483.197 446.072 481.468C445.961 481.099 445.516 480.91 445.195 481.122C444.408 481.645 443.35 481.772 442.48 481.391C442.254 481.291 442.033 481.16 441.788 481.138C441.358 481.098 440.455 481.652 440.045 481.816C439.345 482.095 438.661 482.416 437.986 482.752C436.632 483.426 435.322 484.177 433.975 484.859Z" fill="#15243E"/>
<path d="M484.901 481.726C483.797 483.158 482.658 484.67 482.383 486.463C482.26 487.266 482.392 488.126 482.934 488.731C483.572 489.443 484.316 489.294 485.002 489.098C486.365 488.707 487.67 488.12 488.867 487.361C490.562 486.284 492.019 484.878 493.463 483.482C494.423 482.555 495.382 481.627 496.342 480.7C496.916 480.144 498.275 479.342 498.175 478.409C498.144 478.118 497.966 477.866 497.794 477.631C496.721 476.176 495.571 474.778 494.35 473.446C494.089 473.162 493.606 473.183 493.409 473.513C492.925 474.325 492.025 474.896 491.075 474.928C490.829 474.936 490.573 474.912 490.342 474.998C489.936 475.148 489.361 476.038 489.062 476.363C488.551 476.918 488.072 477.502 487.609 478.096C486.68 479.286 485.822 480.53 484.901 481.726Z" fill="#15243E"/>
<path d="M475.037 369.228C473.166 380.101 468.666 390.058 463.028 399.541C457.391 409.025 451.046 418.109 446.102 427.972C445.522 429.132 444.95 430.33 444.809 431.62C444.66 432.966 444.988 434.312 445.285 435.634C448.422 449.562 448.412 464.19 445.26 478.114C443.059 478.524 441.944 478.936 439.744 479.347C436.732 469.939 425.527 434.227 424.934 429.758C424.159 423.91 426.33 418.122 428.362 412.583C433.544 398.456 438.067 384.089 441.908 369.54" fill="#15243E"/>
<path d="M441.012 296.628C434.856 306.132 426.78 314.196 418.656 322.092C418.488 322.26 418.32 322.416 418.152 322.584C416.016 324.66 413.448 326.88 410.484 326.532C407.748 326.22 405.792 323.808 404.16 321.6C395.052 309.288 388.452 300.994 382.742 286.795C381.713 284.234 381.314 284.002 381.782 282.142C381.842 281.914 385.003 284.26 381.653 280.482C381.45 280.253 381.883 280.968 382.195 280.932C384.991 280.644 383.809 279.612 385.669 281.736C394.585 291.888 404.629 306.072 412.501 314.196C412.501 314.196 412.873 313.74 413.533 312.948C417.613 308.064 432.721 290.268 439.501 286.8C440.701 286.188 442.333 285.744 443.257 286.728C443.677 287.16 443.821 287.784 443.881 288.384C444.156 291.336 442.62 294.144 441.012 296.628Z" fill="#F9B589"/>
<path d="M435.362 262.369C433.212 261.08 430.384 262.472 428.752 264.374C425.644 267.998 424.973 273.262 426.062 277.909C426.6 280.202 427.703 282.595 429.838 283.59C431.714 284.465 434.014 284.018 435.74 282.875C437.467 281.732 438.707 279.988 439.722 278.182C441.86 274.38 443.13 269.518 440.93 265.751C440.392 264.829 439.67 264.025 438.884 263.303C437.692 262.21 435.869 261.276 434.542 262.204L435.362 262.369Z" fill="#F9B589"/>
<path d="M442.283 283.48C442.283 283.48 439.044 279.728 437.934 277.094C437.095 275.104 435.53 279.604 434.921 281.677C435.716 284.696 437.07 288.454 437.864 291.472C437.946 291.782 438.061 292.348 438.175 292.649C438.223 292.777 438.308 292.93 438.445 292.918C438.54 292.909 438.605 292.823 438.659 292.744C440.074 290.636 441.694 288.666 443.488 286.871C443.999 286.358 444.542 285.834 444.779 285.15C445.013 284.465 444.072 283.552 442.283 283.48Z" fill="#F9B589"/>
<path d="M475.416 369.168C470.52 372.336 464.568 373.716 458.712 373.968C453.396 374.172 448.092 373.524 442.824 372.684C441.816 372.516 440.808 372.36 439.8 372.192C439.584 372.144 439.356 372.108 439.14 372.084C438.732 372.012 438.276 371.928 437.952 371.652C437.568 371.304 437.448 370.752 437.376 370.236C436.728 366.588 436.116 362.928 435.552 359.256C434.892 355.14 434.28 351.024 433.716 346.896C433.236 343.404 432.792 339.9 432.372 336.396C432.084 333.972 431.484 331.524 431.52 329.1C431.556 327.108 431.616 325.116 431.688 323.124C431.724 321.84 431.772 320.556 431.808 319.26C432.108 308.64 431.772 298.2 435.816 288.168C437.112 284.94 441.444 282.312 445.056 283.26L445.128 283.284C451.128 285.012 453.9 287.532 457.824 292.416C460.992 296.364 463.38 300.864 465.3 305.568C465.78 306.696 466.212 307.848 466.644 309C471.768 323.088 473.736 338.088 475.452 353.016C475.536 353.736 475.62 354.48 475.692 355.2C475.704 355.224 475.704 355.224 475.704 355.236C475.932 358.392 476.22 364.248 475.416 369.168Z" fill="#009F4F"/>
<path d="M372.458 349.265C371.15 345.439 374.77 340.488 377.668 338.4C380.988 336.007 384.371 336.16 388.23 336.002C437.03 334.009 435.055 312.245 436.162 305.418C436.88 300.984 437.417 296.934 438.134 292.5C439.733 291.604 441.43 293.226 442.393 294.785C443.357 296.344 443.398 298.297 443.202 300.119C442.694 304.855 440.813 309.324 438.821 313.651C437.174 317.225 435.438 320.758 433.612 324.242C432.698 325.985 431.764 327.716 430.807 329.435C430.343 330.27 429.704 331.124 429.349 332.009C429.055 332.742 429.017 333.533 428.638 334.259C427.534 336.37 425.153 336.942 423.024 337.684C417.203 339.71 411.137 341.104 404.98 341.533C401.879 341.749 398.707 341.774 395.617 341.405C392.785 341.066 389.771 340.598 386.992 341.534C382.793 342.949 379.174 345.694 375.901 348.682C375.344 349.189 374.77 349.722 374.048 349.942C373.327 350.161 372.416 349.961 372.071 349.291C372.565 348.971 371.965 349.586 372.458 349.265Z" fill="#F9B589"/>
<path d="M430.577 272.646C431.309 272.738 432.078 272.714 432.739 273.034C434.306 273.79 433.96 275.746 434.28 277.171C434.351 277.489 434.506 277.853 434.827 277.91C435.235 277.984 435.511 277.516 435.658 277.128C435.942 276.376 436.226 275.623 436.511 274.871C436.724 274.306 437.058 273.646 437.66 273.604C438.358 273.556 438.784 274.398 438.769 275.098C438.75 276.053 437.99 276.754 438.244 277.702C438.436 278.42 438.655 279.132 438.901 279.834C438.912 279.865 439.992 279.136 440.096 279.06C440.599 278.7 440.916 278.222 441.228 277.679C441.553 277.112 441.817 276.511 442.064 275.906C442.871 273.93 443.515 271.852 443.564 269.718C443.614 267.584 443.015 265.374 441.588 263.788C440.149 262.187 438.037 261.368 435.952 260.838C434.651 260.507 433.099 260.324 432.12 261.242C431.828 260.052 431.245 258.906 430.32 258.103C429.394 257.3 428.1 256.879 426.906 257.158C425.491 257.488 424.429 258.733 423.947 260.102C423.397 261.665 423.446 263.314 423.707 264.906C423.972 266.525 424.301 268.024 425.225 269.417C426.5 271.342 428.338 272.363 430.577 272.646Z" fill="#15243E"/>
<path d="M441.012 296.628C434.856 306.132 426.78 314.196 418.656 322.092C416.892 319.068 415.188 316.032 413.532 312.948C417.612 308.064 432.72 290.268 439.5 286.8C440.7 286.188 442.332 285.744 443.256 286.728C443.676 287.16 443.82 287.784 443.88 288.384C444.156 291.336 442.62 294.144 441.012 296.628Z" fill="#009F4F"/>
<g opacity="0.3323">
<path d="M433.716 346.896C433.236 343.404 432.792 339.9 432.372 336.396C432.084 333.972 431.484 331.524 431.52 329.1C431.556 327.108 431.616 325.116 431.688 323.124C434.196 320.052 436.908 317.148 439.788 314.412L441.348 314.652C441.744 325.812 439.056 337.08 433.716 346.896Z" fill="#009F4F"/>
</g>
<path d="M443.461 293.964C443.538 293.964 443.538 293.844 443.461 293.844C443.384 293.844 443.384 293.964 443.461 293.964Z" fill="#E85F43"/>
<path d="M443.063 288.829C439.838 288.196 436.207 291.218 434.628 293.747C432.907 296.501 432.136 299.725 431.39 302.886C430.564 306.391 429.737 309.898 428.91 313.403C428.465 315.29 428.017 317.185 427.309 318.991C425.938 322.492 423.64 325.534 421.482 328.613C421.29 328.886 421.091 329.194 421.126 329.526C421.154 329.797 421.334 330.025 421.514 330.229C422.341 331.168 425.408 333.918 427.588 334.992C427.736 335.065 427.744 335.308 427.9 335.362C428.071 335.42 428.252 335.311 428.4 335.204C433.045 331.817 436.817 326.251 439.632 321.317C441.368 318.272 442.862 315.167 443.884 311.828C444.696 309.173 445.51 306.517 446.323 303.862C447.04 301.522 447.868 298.945 447.682 296.461C447.463 293.528 446.446 289.494 443.063 288.829Z" fill="#009F4F"/>
<path d="M377.692 279.03C378.052 279.764 378.448 280.538 379.148 280.96C379.447 281.138 379.784 281.243 380.122 281.33C380.446 281.416 380.779 281.488 381.114 281.468C381.449 281.449 381.79 281.329 382.014 281.08C382.337 280.721 382.355 280.187 382.334 279.704C382.303 279.001 382.224 278.288 381.959 277.637C381.694 276.984 381.224 276.391 380.581 276.103C380.425 276.032 380.252 275.981 380.083 276.008C379.948 276.03 379.825 276.102 379.712 276.18C378.787 276.815 378.287 277.89 377.828 278.915" fill="#EA905E"/>
<path d="M324.578 284.849C328.939 282.827 332.609 281.623 337.171 283.708C340.246 285.112 343.076 283.525 346.364 283.374C354.497 283.002 362.368 286.096 370.526 284.924C370.994 284.857 370.76 283.681 370.272 283.752C362.12 284.921 354.242 281.855 346.11 282.202C344.132 282.286 342.341 282.94 340.42 283.16C338.196 283.416 336.67 281.927 334.625 281.429C331.112 280.573 327.433 282.235 324.324 283.676C323.869 283.886 324.174 285.036 324.578 284.849Z" fill="#DD7F7F"/>
<path d="M382.573 284.87C380.946 283.934 379.319 283 377.692 282.064C377.082 281.713 376.438 281.327 376.129 280.693C375.922 280.267 375.893 279.779 375.88 279.305C375.845 278.114 375.749 276.982 375.613 275.797C376.472 276.012 377.234 276.593 377.671 277.364C378.013 277.97 378.074 278.656 378.335 279.278C378.576 279.858 379.315 280.226 379.906 280.361C380.286 280.447 380.828 280.33 381.068 280.002C381.23 279.78 381.282 279.493 381.26 279.22C381.245 279.011 381.19 278.807 381.121 278.609C380.998 278.25 380.83 277.907 380.621 277.59C380.513 277.426 380.393 277.266 380.233 277.152C379.865 276.888 379.37 276.916 378.919 276.954C378.456 276.994 377.803 277.183 377.376 276.956C377.231 276.878 377.108 276.726 377.129 276.562C377.138 276.484 377.179 276.413 377.219 276.344C377.791 275.353 378.362 274.362 378.935 273.372C379.004 273.252 379.078 273.127 379.19 273.047C379.394 272.9 379.684 272.933 379.902 273.055C380.12 273.178 380.286 273.373 380.455 273.559C381.197 274.38 382.078 275.074 383.048 275.604C383.537 275.87 384.07 276.114 384.389 276.57C384.703 277.019 384.755 277.594 384.791 278.141C384.874 279.403 384.929 280.667 384.954 281.932C384.966 282.496 384.889 283.123 385.009 283.676C385.103 284.113 385.236 284.488 385.278 284.945" fill="#F9B589"/>
<path d="M373.109 283.468C378.815 279.12 384.162 274.303 389.08 269.082C389.327 268.819 389.592 268.492 389.515 268.139C388.579 267.988 387.71 268.604 386.965 269.19C381.971 273.114 377.089 277.18 372.325 281.381C372.034 281.638 371.77 281.833 371.488 282.1C371.272 282.302 371.054 282.509 370.889 282.755C370.742 282.972 370.642 283.217 370.541 283.459C370.345 283.93 370.151 284.399 369.956 284.869C369.935 284.92 369.914 284.98 369.942 285.028C369.983 285.097 370.086 285.082 370.163 285.056C371.282 284.683 372.169 284.184 373.109 283.468Z" fill="#15243E"/>
<path d="M382.573 284.87C380.946 283.934 379.319 283 377.692 282.064C377.082 281.713 376.438 281.327 376.129 280.693C375.922 280.267 375.893 279.779 375.88 279.305C375.845 278.114 375.749 276.982 375.613 275.797C376.472 276.012 377.234 276.593 377.671 277.364C378.013 277.97 378.074 278.656 378.335 279.278C378.576 279.858 379.315 280.226 379.906 280.361C380.377 280.469 380.916 280.262 381.401 280.273C382.045 280.288 382.674 280.512 383.147 280.957C383.407 281.202 383.612 281.5 383.806 281.801C384.4 282.72 385.176 283.825 385.278 284.941" fill="#F9B589"/>
<path d="M442.602 260.604C444.913 264.138 444.961 267.947 445.218 272.017C445.243 272.414 445.814 272.417 445.837 272.017C446.07 267.982 445.784 263.488 442.831 260.428C442.718 260.311 442.511 260.464 442.602 260.604Z" fill="#15243E"/>
<path d="M445.069 274.661C444.756 274.931 444.59 275.323 444.367 275.665C444.113 276.056 443.777 276.401 443.591 276.832C443.514 277.009 443.671 277.18 443.854 277.094C444.6 276.745 445.35 275.526 445.186 274.691C445.176 274.636 445.106 274.628 445.069 274.661Z" fill="#15243E"/>
<path d="M427.242 400.504C424.991 406.207 422.873 411.96 420.78 417.724C419.908 420.126 418.973 422.466 419.224 425.065C419.46 427.518 420.444 429.884 420.824 432.326C420.858 432.545 421.2 432.485 421.202 432.275C421.228 430.082 420.373 428.147 419.99 426.018C419.364 422.54 420.799 419.454 421.95 416.263C423.833 411.046 425.688 405.821 427.432 400.554C427.472 400.434 427.288 400.388 427.242 400.504Z" fill="#15243E"/>
<path d="M421.763 437.406C421.949 438.049 422.132 438.697 422.272 439.352C422.396 439.937 422.413 440.564 422.678 441.104C422.758 441.268 423.049 441.236 423.082 441.052C423.287 439.849 422.581 438.348 422.054 437.285C421.974 437.12 421.714 437.234 421.763 437.406Z" fill="#15243E"/>
<path d="M365.012 278.818C365.077 278.608 365.664 279.349 365.701 279.409C365.89 279.715 366.078 280.021 366.275 280.321C366.638 280.876 366.998 281.432 367.439 281.932C367.632 282.151 367.937 281.872 367.822 281.636C367.541 281.06 367.178 280.534 366.82 280.003C366.515 279.553 366.214 278.996 365.808 278.629C365.486 278.339 364.787 278.161 364.65 278.717C364.594 278.953 364.94 279.048 365.012 278.818Z" fill="#15243E"/>
<path d="M366.806 271.08C367.49 273.444 367.962 276.108 369.047 278.323C369.18 278.596 369.542 278.388 369.5 278.131C369.115 275.718 367.97 273.283 367.177 270.977C367.097 270.746 366.737 270.84 366.806 271.08Z" fill="#15243E"/>
<path d="M371.021 278.063C372.154 276.594 372.744 274.459 372.488 272.622C372.442 272.281 371.953 272.401 371.927 272.698C371.759 274.588 371.429 276.115 370.673 277.86C370.568 278.1 370.861 278.269 371.021 278.063Z" fill="#15243E"/>
</svg>
